solid WagonTrim-driver
facet normal -2.034838031600927e-18 6.662467060998449e-18 1.0
  outer loop
    vertex -103.56726893241522 -24.098476942531725 3.0
    vertex -114.67938381977395 -0.6010153716455159 2.9999999999999996
    vertex -114.7018067972457 -0.9015230574682738 2.9999999999999996
  endloop
endfacet
facet normal -2.034838031600927e-18 6.662467060998449e-18 1.0
  outer loop
    vertex -114.67938381977395 -0.6010153716455159 2.9999999999999996
    vertex -103.56726893241522 -24.098476942531725 3.0
    vertex -114.57736467188084 -0.3505923001265509 2.9999999999999996
  endloop
endfacet
facet normal -2.034838031600927e-18 6.662467060998449e-18 1.0
  outer loop
    vertex -114.57736467188084 -0.3505923001265509 2.9999999999999996
    vertex -103.56726893241522 -24.098476942531725 3.0
    vertex -114.39574935356633 -0.150253842911379 2.9999999999999996
  endloop
endfacet
facet normal -2.034838031600927e-18 6.662467060998449e-18 1.0
  outer loop
    vertex -114.39574935356633 -0.150253842911379 2.9999999999999996
    vertex -103.56726893241522 -24.098476942531725 3.0
    vertex -114.13453786483048 0.0 2.9999999999999996
  endloop
endfacet
facet normal -2.034838031600927e-18 6.662467060998449e-18 1.0
  outer loop
    vertex -114.13453786483048 0.0 2.9999999999999996
    vertex -103.56726893241522 -24.098476942531725 3.0
    vertex -24.13453786483046 0.0 3.0
  endloop
endfacet
facet normal -2.034838031600927e-18 6.662467060998449e-18 1.0
  outer loop
    vertex -24.13453786483046 0.0 3.0
    vertex -103.56726893241522 -24.098476942531725 3.0
    vertex -103.14817580965745 -24.62436539272155 3.0
  endloop
endfacet
facet normal -2.034838031600927e-18 6.662467060998449e-18 1.0
  outer loop
    vertex -24.13453786483046 0.0 3.0
    vertex -103.14817580965745 -24.62436539272155 3.0
    vertex -102.78999304276125 -24.84974615708862 3.0
  endloop
endfacet
facet normal -2.034838031600927e-18 6.662467060998449e-18 1.0
  outer loop
    vertex -24.13453786483046 0.0 3.0
    vertex -102.78999304276125 -24.84974615708862 3.0
    vertex -102.38453786483046 -25.0 3.0
  endloop
endfacet
facet normal -2.034838031600927e-18 6.662467060998449e-18 1.0
  outer loop
    vertex -24.13453786483046 0.0 3.0
    vertex -102.38453786483046 -25.0 3.0
    vertex -12.134537864830458 -25.0 3.0
  endloop
endfacet
facet normal -2.034838031600927e-18 6.662467060998449e-18 1.0
  outer loop
    vertex -24.13453786483046 0.0 3.0
    vertex -12.134537864830458 -25.0 3.0
    vertex -23.479082686899662 -0.15025384291137894 3.0
  endloop
endfacet
facet normal -2.034838031600927e-18 6.662467060998449e-18 1.0
  outer loop
    vertex -23.479082686899662 -0.15025384291137894 3.0
    vertex -12.134537864830458 -25.0 3.0
    vertex -23.12089992000347 -0.3756346072784474 3.0
  endloop
endfacet
facet normal -2.034838031600927e-18 6.662467060998449e-18 1.0
  outer loop
    vertex -23.12089992000347 -0.3756346072784474 3.0
    vertex -12.134537864830458 -25.0 3.0
    vertex -22.701806797245688 -0.9015230574682738 3.0
  endloop
endfacet
facet normal -2.034838031600927e-18 6.662467060998449e-18 1.0
  outer loop
    vertex -22.701806797245688 -0.9015230574682738 3.0
    vertex -12.134537864830458 -25.0 3.0
    vertex -11.56726893241523 -24.098476942531725 3.0
  endloop
endfacet
facet normal -2.034838031600927e-18 6.662467060998449e-18 1.0
  outer loop
    vertex -11.56726893241523 -24.098476942531725 3.0
    vertex -12.134537864830458 -25.0 3.0
    vertex -11.873326376094585 -24.84974615708862 3.0
  endloop
endfacet
facet normal -2.034838031600927e-18 6.662467060998449e-18 1.0
  outer loop
    vertex -11.56726893241523 -24.098476942531725 3.0
    vertex -11.873326376094585 -24.84974615708862 3.0
    vertex -11.691711057780088 -24.649407699873446 3.0
  endloop
endfacet
facet normal -2.034838031600927e-18 6.662467060998449e-18 1.0
  outer loop
    vertex -11.56726893241523 -24.098476942531725 3.0
    vertex -11.691711057780088 -24.649407699873446 3.0
    vertex -11.589691909886971 -24.398984628354484 3.0
  endloop
endfacet
facet normal 0.9015230574682737 0.4327310675847713 0.0
  outer loop
    vertex -22.701806797245688 -0.9015230574682738 0.0
    vertex -11.56726893241523 -24.098476942531725 3.0
    vertex -11.56726893241523 -24.098476942531725 0.0
  endloop
endfacet
facet normal 0.9015230574682737 0.4327310675847713 0.0
  outer loop
    vertex -11.56726893241523 -24.098476942531725 3.0
    vertex -22.701806797245688 -0.9015230574682738 0.0
    vertex -22.701806797245688 -0.9015230574682738 3.0
  endloop
endfacet
facet normal -0.9015230574682737 -0.4327310675847713 -1.0313827078187273e-16
  outer loop
    vertex -114.7018067972457 -0.9015230574682738 2.9999999999999996
    vertex -103.56726893241522 -24.098476942531725 0.0
    vertex -103.56726893241522 -24.098476942531725 3.0
  endloop
endfacet
facet normal -0.9015230574682737 -0.4327310675847713 -1.0313827078187273e-16
  outer loop
    vertex -103.56726893241522 -24.098476942531725 0.0
    vertex -114.7018067972457 -0.9015230574682738 2.9999999999999996
    vertex -114.7018067972457 -0.9015230574682738 0.0
  endloop
endfacet
facet normal 0.0 1.0 0.0
  outer loop
    vertex -114.13453786483048 0.0 2.9999999999999996
    vertex -95.13453786483046 0.0 0.0
    vertex -114.13453786483048 0.0 0.0
  endloop
endfacet
facet normal 0.0 1.0 0.0
  outer loop
    vertex -95.13453786483046 0.0 0.0
    vertex -114.13453786483048 0.0 2.9999999999999996
    vertex -36.134537864830456 0.0 0.0
  endloop
endfacet
facet normal 0.0 1.0 0.0
  outer loop
    vertex -36.134537864830456 0.0 0.0
    vertex -114.13453786483048 0.0 2.9999999999999996
    vertex -24.13453786483046 0.0 0.0
  endloop
endfacet
facet normal 0.0 1.0 0.0
  outer loop
    vertex -24.13453786483046 0.0 0.0
    vertex -114.13453786483048 0.0 2.9999999999999996
    vertex -24.13453786483046 0.0 3.0
  endloop
endfacet
facet normal -0.0 -0.0 -1.0
  outer loop
    vertex -92.38453786483046 -6.3349364905389045 0.0
    vertex -92.63453786483046 -7.5 0.0
    vertex -92.63453786483046 -6.231383099945631 0.0
  endloop
endfacet
facet normal -0.0 -0.0 -1.0
  outer loop
    vertex -92.63453786483046 -7.5 0.0
    vertex -92.38453786483046 -6.3349364905389045 0.0
    vertex -91.3659209647761 -7.5 0.0
  endloop
endfacet
facet normal -0.0 -0.0 -1.0
  outer loop
    vertex -91.3659209647761 -7.5 0.0
    vertex -92.38453786483046 -6.3349364905389045 0.0
    vertex -91.8667709118641 -6.732233047033632 0.0
  endloop
endfacet
facet normal -0.0 -0.0 -1.0
  outer loop
    vertex -91.3659209647761 -7.5 0.0
    vertex -91.8667709118641 -6.732233047033632 0.0
    vertex -91.46947435536937 -7.250000000000003 0.0
  endloop
endfacet
facet normal -0.0 -0.0 -1.0
  outer loop
    vertex -95.79960137429156 -7.249999999999999 0.0
    vertex -94.63453786483046 -7.5 0.0
    vertex -95.90315476488483 -7.5 0.0
  endloop
endfacet
facet normal -0.0 -0.0 -1.0
  outer loop
    vertex -94.63453786483046 -7.5 0.0
    vertex -95.79960137429156 -7.249999999999999 0.0
    vertex -95.40230481779683 -6.732233047033631 0.0
  endloop
endfacet
facet normal -0.0 -0.0 -1.0
  outer loop
    vertex -94.63453786483046 -7.5 0.0
    vertex -95.40230481779683 -6.732233047033631 0.0
    vertex -94.88453786483046 -6.334936490538904 0.0
  endloop
endfacet
facet normal -0.0 -0.0 -1.0
  outer loop
    vertex -94.63453786483046 -7.5 0.0
    vertex -94.88453786483046 -6.334936490538904 0.0
    vertex -94.63453786483046 -6.23138309994563 0.0
  endloop
endfacet
facet normal -0.0 -0.0 -1.0
  outer loop
    vertex -94.63453786483046 -9.5 0.0
    vertex -95.79960137429156 -9.749999999999998 0.0
    vertex -95.90315476488483 -9.5 0.0
  endloop
endfacet
facet normal -0.0 -0.0 -1.0
  outer loop
    vertex -95.79960137429156 -9.749999999999998 0.0
    vertex -94.63453786483046 -9.5 0.0
    vertex -95.40230481779683 -10.267766952966367 0.0
  endloop
endfacet
facet normal -0.0 -0.0 -1.0
  outer loop
    vertex -95.40230481779683 -10.267766952966367 0.0
    vertex -94.63453786483046 -9.5 0.0
    vertex -94.88453786483046 -10.665063509461095 0.0
  endloop
endfacet
facet normal -0.0 -0.0 -1.0
  outer loop
    vertex -94.88453786483046 -10.665063509461095 0.0
    vertex -94.63453786483046 -9.5 0.0
    vertex -94.63453786483046 -10.768616900054369 0.0
  endloop
endfacet
facet normal -0.0 -0.0 -1.0
  outer loop
    vertex -91.3659209647761 -9.5 0.0
    vertex -92.63453786483046 -10.76861690005437 0.0
    vertex -92.63453786483046 -9.5 0.0
  endloop
endfacet
facet normal -0.0 -0.0 -1.0
  outer loop
    vertex -92.63453786483046 -10.76861690005437 0.0
    vertex -91.3659209647761 -9.5 0.0
    vertex -92.38453786483046 -10.665063509461097 0.0
  endloop
endfacet
facet normal -0.0 -0.0 -1.0
  outer loop
    vertex -92.38453786483046 -10.665063509461097 0.0
    vertex -91.3659209647761 -9.5 0.0
    vertex -91.8667709118641 -10.267766952966369 0.0
  endloop
endfacet
facet normal -0.0 -0.0 -1.0
  outer loop
    vertex -91.8667709118641 -10.267766952966369 0.0
    vertex -91.3659209647761 -9.5 0.0
    vertex -91.46947435536937 -9.75 0.0
  endloop
endfacet
facet normal -0.0 -0.0 -1.0
  outer loop
    vertex -38.18483062929988 -6.463250400454129 0.0
    vertex -38.63453786483046 -7.5 0.0
    vertex -38.63453786483046 -6.224717361951123 0.0
  endloop
endfacet
facet normal -0.0 -0.0 -1.0
  outer loop
    vertex -38.63453786483046 -7.5 0.0
    vertex -38.18483062929988 -6.463250400454129 0.0
    vertex -37.34870617778856 -7.5 0.0
  endloop
endfacet
facet normal -0.0 -0.0 -1.0
  outer loop
    vertex -37.34870617778856 -7.5 0.0
    vertex -38.18483062929988 -6.463250400454129 0.0
    vertex -37.707078619005934 -6.907862802492967 0.0
  endloop
endfacet
facet normal -0.0 -0.0 -1.0
  outer loop
    vertex -37.34870617778856 -7.5 0.0
    vertex -37.707078619005934 -6.907862802492967 0.0
    vertex -37.36067977103792 -7.460976723410788 0.0
  endloop
endfacet
facet normal -0.0 -0.0 -1.0
  outer loop
    vertex -40.63453786483046 -9.500000000000002 0.0
    vertex -41.90839595862299 -9.539023276589216 0.0
    vertex -41.92036955187236 -9.500000000000002 0.0
  endloop
endfacet
facet normal -0.0 -0.0 -1.0
  outer loop
    vertex -41.90839595862299 -9.539023276589216 0.0
    vertex -40.63453786483046 -9.500000000000002 0.0
    vertex -41.561997110654985 -10.092137197507036 0.0
  endloop
endfacet
facet normal -0.0 -0.0 -1.0
  outer loop
    vertex -41.561997110654985 -10.092137197507036 0.0
    vertex -40.63453786483046 -9.500000000000002 0.0
    vertex -41.084245100361045 -10.536749599545873 0.0
  endloop
endfacet
facet normal -0.0 -0.0 -1.0
  outer loop
    vertex -41.084245100361045 -10.536749599545873 0.0
    vertex -40.63453786483046 -9.500000000000002 0.0
    vertex -40.63453786483046 -10.775282638048882 0.0
  endloop
endfacet
facet normal -0.0 -0.0 -1.0
  outer loop
    vertex -37.359255226781585 -9.500000000000002 0.0
    vertex -38.63453786483046 -10.785831687041902 0.0
    vertex -38.63453786483046 -9.500000000000002 0.0
  endloop
endfacet
facet normal -0.0 -0.0 -1.0
  outer loop
    vertex -38.63453786483046 -10.785831687041902 0.0
    vertex -37.359255226781585 -9.500000000000002 0.0
    vertex -38.595514588241244 -10.773858093792535 0.0
  endloop
endfacet
facet normal -0.0 -0.0 -1.0
  outer loop
    vertex -38.595514588241244 -10.773858093792535 0.0
    vertex -37.359255226781585 -9.500000000000002 0.0
    vertex -38.04240066732343 -10.427459245824526 0.0
  endloop
endfacet
facet normal -0.0 -0.0 -1.0
  outer loop
    vertex -38.04240066732343 -10.427459245824526 0.0
    vertex -37.359255226781585 -9.500000000000002 0.0
    vertex -37.597788265284585 -9.949707235530585 0.0
  endloop
endfacet
facet normal -0.0 -0.0 -1.0
  outer loop
    vertex -42.114749311699875 -8.500000000000002 0.0
    vertex -91.13453786483046 -8.5 0.0
    vertex -42.12326837695026 -8.262891505753341 0.0
  endloop
endfacet
facet normal -0.0 -0.0 -1.0
  outer loop
    vertex -36.134537864830456 0.0 0.0
    vertex -93.63453786483046 -6.0 0.0
    vertex -95.13453786483046 0.0 0.0
  endloop
endfacet
facet normal -0.0 -0.0 -1.0
  outer loop
    vertex -93.63453786483046 -6.0 0.0
    vertex -36.134537864830456 0.0 0.0
    vertex -92.98749025207417 -6.085185434277331 0.0
  endloop
endfacet
facet normal -0.0 -0.0 -1.0
  outer loop
    vertex -92.98749025207417 -6.085185434277331 0.0
    vertex -36.134537864830456 0.0 0.0
    vertex -92.63453786483046 -6.231383099945631 0.0
  endloop
endfacet
facet normal -0.0 -0.0 -1.0
  outer loop
    vertex -92.63453786483046 -6.231383099945631 0.0
    vertex -36.134537864830456 0.0 0.0
    vertex -92.38453786483046 -6.3349364905389045 0.0
  endloop
endfacet
facet normal -0.0 -0.0 -1.0
  outer loop
    vertex -92.38453786483046 -6.3349364905389045 0.0
    vertex -36.134537864830456 0.0 0.0
    vertex -91.8667709118641 -6.732233047033632 0.0
  endloop
endfacet
facet normal -0.0 -0.0 -1.0
  outer loop
    vertex -91.8667709118641 -6.732233047033632 0.0
    vertex -36.134537864830456 0.0 0.0
    vertex -91.46947435536937 -7.250000000000003 0.0
  endloop
endfacet
facet normal -0.0 -0.0 -1.0
  outer loop
    vertex -91.46947435536937 -7.250000000000003 0.0
    vertex -36.134537864830456 0.0 0.0
    vertex -91.3659209647761 -7.5 0.0
  endloop
endfacet
facet normal -0.0 -0.0 -1.0
  outer loop
    vertex -91.3659209647761 -7.5 0.0
    vertex -36.134537864830456 0.0 0.0
    vertex -91.21972329910778 -7.8529523872437 0.0
  endloop
endfacet
facet normal -0.0 -0.0 -1.0
  outer loop
    vertex -91.21972329910778 -7.8529523872437 0.0
    vertex -36.134537864830456 0.0 0.0
    vertex -91.13453786483046 -8.5 0.0
  endloop
endfacet
facet normal -0.0 -0.0 -1.0
  outer loop
    vertex -91.13453786483046 -8.5 0.0
    vertex -36.134537864830456 0.0 0.0
    vertex -41.671287464376334 -7.050292764469416 0.0
  endloop
endfacet
facet normal -0.0 -0.0 -1.0
  outer loop
    vertex -91.13453786483046 -8.5 0.0
    vertex -41.671287464376334 -7.050292764469416 0.0
    vertex -41.977098747093976 -7.626839927110285 0.0
  endloop
endfacet
facet normal -0.0 -0.0 -1.0
  outer loop
    vertex -91.13453786483046 -8.5 0.0
    vertex -41.977098747093976 -7.626839927110285 0.0
    vertex -42.12326837695026 -8.262891505753341 0.0
  endloop
endfacet
facet normal -0.0 -0.0 -1.0
  outer loop
    vertex -41.977098747093976 -7.626839927110285 0.0
    vertex -41.671287464376334 -7.050292764469416 0.0
    vertex -41.90982050287934 -7.5 0.0
  endloop
endfacet
facet normal -0.0 -0.0 -1.0
  outer loop
    vertex -41.671287464376334 -7.050292764469416 0.0
    vertex -36.134537864830456 0.0 0.0
    vertex -41.2266750623375 -6.572540754175476 0.0
  endloop
endfacet
facet normal -0.0 -0.0 -1.0
  outer loop
    vertex -41.2266750623375 -6.572540754175476 0.0
    vertex -36.134537864830456 0.0 0.0
    vertex -40.673561141419675 -6.226141906207469 0.0
  endloop
endfacet
facet normal -0.0 -0.0 -1.0
  outer loop
    vertex -40.673561141419675 -6.226141906207469 0.0
    vertex -36.134537864830456 0.0 0.0
    vertex -40.63453786483046 -6.214168312958099 0.0
  endloop
endfacet
facet normal -0.0 -0.0 -1.0
  outer loop
    vertex -40.63453786483046 -6.214168312958099 0.0
    vertex -36.134537864830456 0.0 0.0
    vertex -40.04963950126945 -6.034702729603251 0.0
  endloop
endfacet
facet normal -0.0 -0.0 -1.0
  outer loop
    vertex -40.04963950126945 -6.034702729603251 0.0
    vertex -36.134537864830456 0.0 0.0
    vertex -39.63453786483046 -6.019788553130582 0.0
  endloop
endfacet
facet normal -0.0 -0.0 -1.0
  outer loop
    vertex -92.63453786483046 -6.231383099945631 0.0
    vertex -93.63453786483046 -6.0 0.0
    vertex -92.98749025207417 -6.085185434277331 0.0
  endloop
endfacet
facet normal -0.0 -0.0 -1.0
  outer loop
    vertex -93.63453786483046 -6.0 0.0
    vertex -94.63453786483046 -6.23138309994563 0.0
    vertex -94.28158547758676 -6.08518543427733 0.0
  endloop
endfacet
facet normal -0.0 -0.0 -1.0
  outer loop
    vertex -93.63453786483046 -11.0 0.0
    vertex -94.28158547758676 -10.91481456572267 0.0
    vertex -94.63453786483046 -10.768616900054369 0.0
  endloop
endfacet
facet normal -0.0 -0.0 -1.0
  outer loop
    vertex -92.63453786483046 -10.76861690005437 0.0
    vertex -92.98749025207417 -10.91481456572267 0.0
    vertex -93.63453786483046 -11.0 0.0
  endloop
endfacet
facet normal -0.0 -0.0 -1.0
  outer loop
    vertex -39.3974293705838 -6.0112694878802015 0.0
    vertex -38.63453786483046 -6.224717361951123 0.0
    vertex -39.63453786483046 -6.019788553130582 0.0
  endloop
endfacet
facet normal -0.0 -0.0 -1.0
  outer loop
    vertex -38.63453786483046 -6.224717361951123 0.0
    vertex -39.3974293705838 -6.0112694878802015 0.0
    vertex -38.761377791940745 -6.157439117736485 0.0
  endloop
endfacet
facet normal -0.0 -0.0 -1.0
  outer loop
    vertex -39.63453786483046 -6.019788553130582 0.0
    vertex -40.63453786483046 -6.214168312958099 0.0
    vertex -40.04963950126945 -6.034702729603251 0.0
  endloop
endfacet
facet normal -0.0 -0.0 -1.0
  outer loop
    vertex -39.634537864830456 -10.980211446869419 0.0
    vertex -40.50769793772018 -10.842560882263518 0.0
    vertex -40.63453786483046 -10.775282638048882 0.0
  endloop
endfacet
facet normal -0.0 -0.0 -1.0
  outer loop
    vertex -40.50769793772018 -10.842560882263518 0.0
    vertex -39.634537864830456 -10.980211446869419 0.0
    vertex -39.871646359077126 -10.9887305121198 0.0
  endloop
endfacet
facet normal -0.0 -0.0 -1.0
  outer loop
    vertex -38.63453786483046 -10.785831687041902 0.0
    vertex -39.21943622839147 -10.965297270396752 0.0
    vertex -39.634537864830456 -10.980211446869419 0.0
  endloop
endfacet
facet normal -1.0 0.0 0.0
  outer loop
    vertex -94.63453786483046 -6.23138309994563 0.0
    vertex -94.63453786483046 -7.5 -1.9999999999999991
    vertex -94.63453786483046 -7.5 0.0
  endloop
endfacet
facet normal -1.0 0.0 0.0
  outer loop
    vertex -94.63453786483046 -7.5 -1.9999999999999991
    vertex -94.63453786483046 -6.23138309994563 0.0
    vertex -94.63453786483046 -6.23138309994563 -1.9999999999999991
  endloop
endfacet
facet normal -0.22542729729464436 0.9742599928327306 0.0
  outer loop
    vertex -94.63453786483046 -6.23138309994563 0.0
    vertex -93.63453786483046 -6.0 -1.9999999999999991
    vertex -94.63453786483046 -6.23138309994563 -1.9999999999999991
  endloop
endfacet
facet normal -0.22542729729464436 0.9742599928327306 0.0
  outer loop
    vertex -93.63453786483046 -6.0 -1.9999999999999991
    vertex -94.63453786483046 -6.23138309994563 0.0
    vertex -93.63453786483046 -6.0 0.0
  endloop
endfacet
facet normal 0.22542729729464564 0.9742599928327303 0.0
  outer loop
    vertex -93.63453786483046 -6.0 0.0
    vertex -92.63453786483046 -6.231383099945631 -1.9999999999999991
    vertex -93.63453786483046 -6.0 -1.9999999999999991
  endloop
endfacet
facet normal 0.22542729729464564 0.9742599928327303 0.0
  outer loop
    vertex -92.63453786483046 -6.231383099945631 -1.9999999999999991
    vertex -93.63453786483046 -6.0 0.0
    vertex -92.63453786483046 -6.231383099945631 0.0
  endloop
endfacet
facet normal 1.0 0.0 0.0
  outer loop
    vertex -92.63453786483046 -6.231383099945631 -1.9999999999999991
    vertex -92.63453786483046 -7.5 0.0
    vertex -92.63453786483046 -7.5 -1.9999999999999991
  endloop
endfacet
facet normal 1.0 0.0 0.0
  outer loop
    vertex -92.63453786483046 -7.5 0.0
    vertex -92.63453786483046 -6.231383099945631 -1.9999999999999991
    vertex -92.63453786483046 -6.231383099945631 0.0
  endloop
endfacet
facet normal 0.0 1.0 0.0
  outer loop
    vertex -92.63453786483046 -7.5 0.0
    vertex -91.3659209647761 -7.5 -1.9999999999999991
    vertex -92.63453786483046 -7.5 -1.9999999999999991
  endloop
endfacet
facet normal 0.0 1.0 0.0
  outer loop
    vertex -91.3659209647761 -7.5 -1.9999999999999991
    vertex -92.63453786483046 -7.5 0.0
    vertex -91.3659209647761 -7.5 0.0
  endloop
endfacet
facet normal 0.9742599928327316 0.22542729729464017 0.0
  outer loop
    vertex -91.3659209647761 -7.5 -1.9999999999999991
    vertex -91.13453786483046 -8.5 0.0
    vertex -91.13453786483046 -8.5 -1.9999999999999991
  endloop
endfacet
facet normal 0.9742599928327316 0.22542729729464017 0.0
  outer loop
    vertex -91.13453786483046 -8.5 0.0
    vertex -91.3659209647761 -7.5 -1.9999999999999991
    vertex -91.3659209647761 -7.5 0.0
  endloop
endfacet
facet normal 0.9742599928327316 -0.22542729729464017 0.0
  outer loop
    vertex -91.13453786483046 -8.5 -1.9999999999999991
    vertex -91.3659209647761 -9.5 0.0
    vertex -91.3659209647761 -9.5 -1.9999999999999991
  endloop
endfacet
facet normal 0.9742599928327316 -0.22542729729464017 0.0
  outer loop
    vertex -91.3659209647761 -9.5 0.0
    vertex -91.13453786483046 -8.5 -1.9999999999999991
    vertex -91.13453786483046 -8.5 0.0
  endloop
endfacet
facet normal 0.0 -1.0 0.0
  outer loop
    vertex -91.3659209647761 -9.5 0.0
    vertex -92.63453786483046 -9.5 -1.9999999999999991
    vertex -91.3659209647761 -9.5 -1.9999999999999991
  endloop
endfacet
facet normal 0.0 -1.0 0.0
  outer loop
    vertex -92.63453786483046 -9.5 -1.9999999999999991
    vertex -91.3659209647761 -9.5 0.0
    vertex -92.63453786483046 -9.5 0.0
  endloop
endfacet
facet normal 1.0 0.0 0.0
  outer loop
    vertex -92.63453786483046 -9.5 -1.9999999999999991
    vertex -92.63453786483046 -10.76861690005437 0.0
    vertex -92.63453786483046 -10.76861690005437 -1.9999999999999991
  endloop
endfacet
facet normal 1.0 0.0 0.0
  outer loop
    vertex -92.63453786483046 -10.76861690005437 0.0
    vertex -92.63453786483046 -9.5 -1.9999999999999991
    vertex -92.63453786483046 -9.5 0.0
  endloop
endfacet
facet normal 0.22542729729464436 -0.9742599928327306 0.0
  outer loop
    vertex -92.63453786483046 -10.76861690005437 0.0
    vertex -93.63453786483046 -11.0 -1.9999999999999991
    vertex -92.63453786483046 -10.76861690005437 -1.9999999999999991
  endloop
endfacet
facet normal 0.22542729729464436 -0.9742599928327306 0.0
  outer loop
    vertex -93.63453786483046 -11.0 -1.9999999999999991
    vertex -92.63453786483046 -10.76861690005437 0.0
    vertex -93.63453786483046 -11.0 0.0
  endloop
endfacet
facet normal -0.22542729729464564 -0.9742599928327303 0.0
  outer loop
    vertex -93.63453786483046 -11.0 0.0
    vertex -94.63453786483046 -10.768616900054369 -1.9999999999999991
    vertex -93.63453786483046 -11.0 -1.9999999999999991
  endloop
endfacet
facet normal -0.22542729729464564 -0.9742599928327303 0.0
  outer loop
    vertex -94.63453786483046 -10.768616900054369 -1.9999999999999991
    vertex -93.63453786483046 -11.0 0.0
    vertex -94.63453786483046 -10.768616900054369 0.0
  endloop
endfacet
facet normal -1.0 0.0 0.0
  outer loop
    vertex -94.63453786483046 -9.5 0.0
    vertex -94.63453786483046 -10.768616900054369 -1.9999999999999991
    vertex -94.63453786483046 -10.768616900054369 0.0
  endloop
endfacet
facet normal -1.0 0.0 0.0
  outer loop
    vertex -94.63453786483046 -10.768616900054369 -1.9999999999999991
    vertex -94.63453786483046 -9.5 0.0
    vertex -94.63453786483046 -9.5 -1.9999999999999991
  endloop
endfacet
facet normal 0.0 -1.0 0.0
  outer loop
    vertex -94.63453786483046 -9.5 0.0
    vertex -95.90315476488483 -9.5 -1.9999999999999991
    vertex -94.63453786483046 -9.5 -1.9999999999999991
  endloop
endfacet
facet normal 0.0 -1.0 0.0
  outer loop
    vertex -95.90315476488483 -9.5 -1.9999999999999991
    vertex -94.63453786483046 -9.5 0.0
    vertex -95.90315476488483 -9.5 0.0
  endloop
endfacet
facet normal -0.9742599928327316 -0.22542729729464017 0.0
  outer loop
    vertex -96.13453786483046 -8.5 0.0
    vertex -95.90315476488483 -9.5 -1.9999999999999991
    vertex -95.90315476488483 -9.5 0.0
  endloop
endfacet
facet normal -0.9742599928327316 -0.22542729729464017 0.0
  outer loop
    vertex -95.90315476488483 -9.5 -1.9999999999999991
    vertex -96.13453786483046 -8.5 0.0
    vertex -96.13453786483046 -8.5 -1.9999999999999991
  endloop
endfacet
facet normal 0.0 1.0 0.0
  outer loop
    vertex -95.90315476488483 -7.5 0.0
    vertex -94.63453786483046 -7.5 -1.9999999999999991
    vertex -95.90315476488483 -7.5 -1.9999999999999991
  endloop
endfacet
facet normal 0.0 1.0 0.0
  outer loop
    vertex -94.63453786483046 -7.5 -1.9999999999999991
    vertex -95.90315476488483 -7.5 0.0
    vertex -94.63453786483046 -7.5 0.0
  endloop
endfacet
facet normal -0.9742599928327316 0.22542729729464017 0.0
  outer loop
    vertex -95.90315476488483 -7.5 0.0
    vertex -96.13453786483046 -8.5 -1.9999999999999991
    vertex -96.13453786483046 -8.5 0.0
  endloop
endfacet
facet normal -0.9742599928327316 0.22542729729464017 0.0
  outer loop
    vertex -96.13453786483046 -8.5 -1.9999999999999991
    vertex -95.90315476488483 -7.5 0.0
    vertex -95.90315476488483 -7.5 -1.9999999999999991
  endloop
endfacet
facet normal 0.9952302713906489 -1.607806541007807e-16 -0.09755361042880664
  outer loop
    vertex -39.32068587763905 -7.817415208585338 -9.0
    vertex -38.63453786483046 -7.5 -1.9999999999999991
    vertex -39.32068587763905 -8.200000000000001 -9.0
  endloop
endfacet
facet normal 0.9952302713906489 -1.607806541007807e-16 -0.09755361042880664
  outer loop
    vertex -38.63453786483046 -7.5 -1.9999999999999991
    vertex -39.32068587763905 -7.817415208585338 -9.0
    vertex -38.63453786483046 -6.224717361951123 -1.9999999999999991
  endloop
endfacet
facet normal -0.9533397502194357 -0.1853099516816765 -0.23833493755485913
  outer loop
    vertex -42.114749311699875 -8.500000000000002 -1.9999999999999991
    vertex -40.30643538375162 -8.800000000000002 -9.000000000000002
    vertex -41.92036955187236 -9.500000000000002 -1.9999999999999991
  endloop
endfacet
facet normal -0.9533397502194357 -0.1853099516816765 -0.23833493755485913
  outer loop
    vertex -40.30643538375162 -8.800000000000002 -9.000000000000002
    vertex -42.114749311699875 -8.500000000000002 -1.9999999999999991
    vertex -40.36474931169988 -8.500000000000004 -9.0
  endloop
endfacet
facet normal 0.0 -0.9950371902099893 -0.09950371902099918
  outer loop
    vertex -37.359255226781585 -9.500000000000002 -1.9999999999999991
    vertex -39.32068587763905 -8.799999999999997 -9.0
    vertex -38.938101086224385 -8.799999999999997 -9.0
  endloop
endfacet
facet normal 0.0 -0.9950371902099893 -0.09950371902099918
  outer loop
    vertex -39.32068587763905 -8.799999999999997 -9.0
    vertex -37.359255226781585 -9.500000000000002 -1.9999999999999991
    vertex -38.63453786483046 -9.500000000000002 -1.9999999999999991
  endloop
endfacet
facet normal -1.6074946160250794e-16 0.9950371902099893 -0.09950371902099883
  outer loop
    vertex -41.90982050287934 -7.5 -1.9999999999999991
    vertex -39.92068587763905 -8.199999999999998 -9.0
    vertex -40.30327066905372 -8.2 -9.0
  endloop
endfacet
facet normal -1.6074946160250794e-16 0.9950371902099893 -0.09950371902099883
  outer loop
    vertex -39.92068587763905 -8.199999999999998 -9.0
    vertex -41.90982050287934 -7.5 -1.9999999999999991
    vertex -40.63453786483046 -7.5 -1.9999999999999991
  endloop
endfacet
facet normal -0.9515200902499841 0.1949938786637384 -0.237880022562496
  outer loop
    vertex -42.114749311699875 -8.500000000000002 -1.9999999999999991
    vertex -40.30327066905372 -8.2 -9.0
    vertex -40.36474931169988 -8.500000000000004 -9.0
  endloop
endfacet
facet normal -0.9515200902499841 0.1949938786637384 -0.237880022562496
  outer loop
    vertex -40.30327066905372 -8.2 -9.0
    vertex -42.114749311699875 -8.500000000000002 -1.9999999999999991
    vertex -41.90982050287934 -7.5 -1.9999999999999991
  endloop
endfacet
facet normal 0.19509869921006978 0.9520315876179273 -0.23573789204162238
  outer loop
    vertex -39.63453786483046 -6.019788553130582 -1.9999999999999991
    vertex -39.32068587763905 -7.817415208585338 -9.0
    vertex -39.620685877639055 -7.755936565939175 -9.0
  endloop
endfacet
facet normal 0.19509869921006978 0.9520315876179273 -0.23573789204162238
  outer loop
    vertex -39.32068587763905 -7.817415208585338 -9.0
    vertex -39.63453786483046 -6.019788553130582 -1.9999999999999991
    vertex -38.63453786483046 -6.224717361951123 -1.9999999999999991
  endloop
endfacet
facet normal -0.9948403657731547 -1.264731238883123e-15 -0.10145268172077022
  outer loop
    vertex -40.63453786483046 -7.5 -1.9999999999999991
    vertex -39.92068587763906 -7.814250493887432 -9.0
    vertex -39.92068587763905 -8.199999999999998 -9.0
  endloop
endfacet
facet normal -0.9948403657731547 -1.264731238883123e-15 -0.10145268172077022
  outer loop
    vertex -39.92068587763906 -7.814250493887432 -9.0
    vertex -40.63453786483046 -7.5 -1.9999999999999991
    vertex -40.63453786483046 -6.214168312958099 -1.9999999999999991
  endloop
endfacet
facet normal 0.18540907622627026 -0.9538497032344987 -0.2362079975199403
  outer loop
    vertex -38.63453786483046 -10.785831687041902 -1.9999999999999991
    vertex -39.62068587763905 -9.244063434060825 -9.0
    vertex -39.32068587763904 -9.18574950611257 -9.0
  endloop
endfacet
facet normal 0.18540907622627026 -0.9538497032344987 -0.2362079975199403
  outer loop
    vertex -39.62068587763905 -9.244063434060825 -9.0
    vertex -38.63453786483046 -10.785831687041902 -1.9999999999999991
    vertex -39.634537864830456 -10.980211446869419 -1.9999999999999991
  endloop
endfacet
facet normal 0.9952302713906489 1.7396870180835804e-15 -0.09755361042880635
  outer loop
    vertex -39.32068587763904 -9.18574950611257 -9.0
    vertex -38.63453786483046 -9.500000000000002 -1.9999999999999991
    vertex -38.63453786483046 -10.785831687041902 -1.9999999999999991
  endloop
endfacet
facet normal 0.9952302713906489 1.7396870180835804e-15 -0.09755361042880635
  outer loop
    vertex -38.63453786483046 -9.500000000000002 -1.9999999999999991
    vertex -39.32068587763904 -9.18574950611257 -9.0
    vertex -39.32068587763905 -8.799999999999997 -9.0
  endloop
endfacet
facet normal -0.18537689803692217 0.9536841603334405 -0.23690067117530356
  outer loop
    vertex -40.63453786483046 -6.214168312958099 -1.9999999999999991
    vertex -39.620685877639055 -7.755936565939175 -9.0
    vertex -39.92068587763906 -7.814250493887432 -9.0
  endloop
endfacet
facet normal -0.18537689803692217 0.9536841603334405 -0.23690067117530356
  outer loop
    vertex -39.620685877639055 -7.755936565939175 -9.0
    vertex -40.63453786483046 -6.214168312958099 -1.9999999999999991
    vertex -39.63453786483046 -6.019788553130582 -1.9999999999999991
  endloop
endfacet
facet normal -0.19506313819917603 -0.9518580590101375 -0.23646692710259212
  outer loop
    vertex -39.634537864830456 -10.980211446869419 -1.9999999999999991
    vertex -39.92068587763905 -9.182584791414664 -9.0
    vertex -39.62068587763905 -9.244063434060825 -9.0
  endloop
endfacet
facet normal -0.19506313819917603 -0.9518580590101375 -0.23646692710259212
  outer loop
    vertex -39.92068587763905 -9.182584791414664 -9.0
    vertex -39.634537864830456 -10.980211446869419 -1.9999999999999991
    vertex -40.63453786483046 -10.775282638048882 -1.9999999999999991
  endloop
endfacet
facet normal 4.743680474797942e-16 -0.9950371902099893 -0.09950371902099887
  outer loop
    vertex -39.92068587763905 -8.799999999999999 -9.0
    vertex -41.92036955187236 -9.500000000000002 -1.9999999999999991
    vertex -40.30643538375162 -8.800000000000002 -9.000000000000002
  endloop
endfacet
facet normal 4.743680474797942e-16 -0.9950371902099893 -0.09950371902099887
  outer loop
    vertex -41.92036955187236 -9.500000000000002 -1.9999999999999991
    vertex -39.92068587763905 -8.799999999999999 -9.0
    vertex -40.63453786483046 -9.500000000000002 -1.9999999999999991
  endloop
endfacet
facet normal -0.9948403657731547 0.0 -0.10145268172077075
  outer loop
    vertex -40.63453786483046 -9.500000000000002 -1.9999999999999991
    vertex -39.92068587763905 -9.182584791414664 -9.0
    vertex -40.63453786483046 -10.775282638048882 -1.9999999999999991
  endloop
endfacet
facet normal -0.9948403657731547 0.0 -0.10145268172077075
  outer loop
    vertex -39.92068587763905 -9.182584791414664 -9.0
    vertex -40.63453786483046 -9.500000000000002 -1.9999999999999991
    vertex -39.92068587763905 -8.799999999999999 -9.0
  endloop
endfacet
facet normal 0.9523668614098281 -0.19516740646887032 -0.2343225229050938
  outer loop
    vertex -38.938101086224385 -8.799999999999997 -9.0
    vertex -37.154326417961045 -8.500000000000002 -1.9999999999999991
    vertex -37.359255226781585 -9.500000000000002 -1.9999999999999991
  endloop
endfacet
facet normal 0.9523668614098281 -0.19516740646887032 -0.2343225229050938
  outer loop
    vertex -37.154326417961045 -8.500000000000002 -1.9999999999999991
    vertex -38.938101086224385 -8.799999999999997 -9.0
    vertex -38.87662244357823 -8.5 -9.0
  endloop
endfacet
facet normal 0.9541913930523738 0.18547549381100184 -0.2347714348474605
  outer loop
    vertex -38.87662244357823 -8.5 -9.0
    vertex -37.34870617778856 -7.5 -1.9999999999999991
    vertex -37.154326417961045 -8.500000000000002 -1.9999999999999991
  endloop
endfacet
facet normal 0.9541913930523738 0.18547549381100184 -0.2347714348474605
  outer loop
    vertex -37.34870617778856 -7.5 -1.9999999999999991
    vertex -38.87662244357823 -8.5 -9.0
    vertex -38.934936371526476 -8.200000000000001 -9.0
  endloop
endfacet
facet normal -3.1624536498652996e-16 0.9950371902099893 -0.09950371902099907
  outer loop
    vertex -38.63453786483046 -7.5 -1.9999999999999991
    vertex -38.934936371526476 -8.200000000000001 -9.0
    vertex -39.32068587763905 -8.200000000000001 -9.0
  endloop
endfacet
facet normal -3.1624536498652996e-16 0.9950371902099893 -0.09950371902099907
  outer loop
    vertex -38.934936371526476 -8.200000000000001 -9.0
    vertex -38.63453786483046 -7.5 -1.9999999999999991
    vertex -37.34870617778856 -7.5 -1.9999999999999991
  endloop
endfacet
facet normal -0.0 -0.0 -1.0
  outer loop
    vertex -41.671287464376334 -7.050292764469416 0.0
    vertex -40.63453786483046 -7.5 0.0
    vertex -41.90982050287934 -7.5 0.0
  endloop
endfacet
facet normal -0.0 -0.0 -1.0
  outer loop
    vertex -40.63453786483046 -7.5 0.0
    vertex -41.671287464376334 -7.050292764469416 0.0
    vertex -41.2266750623375 -6.572540754175476 0.0
  endloop
endfacet
facet normal -0.0 -0.0 -1.0
  outer loop
    vertex -40.63453786483046 -7.5 0.0
    vertex -41.2266750623375 -6.572540754175476 0.0
    vertex -40.673561141419675 -6.226141906207469 0.0
  endloop
endfacet
facet normal -0.0 -0.0 -1.0
  outer loop
    vertex -40.63453786483046 -7.5 0.0
    vertex -40.673561141419675 -6.226141906207469 0.0
    vertex -40.63453786483046 -6.214168312958099 0.0
  endloop
endfacet
facet normal 0.0 1.0 0.0
  outer loop
    vertex -38.63453786483046 -7.5 0.0
    vertex -37.34870617778856 -7.5 -1.9999999999999991
    vertex -38.63453786483046 -7.5 -1.9999999999999991
  endloop
endfacet
facet normal 0.0 1.0 0.0
  outer loop
    vertex -37.34870617778856 -7.5 -1.9999999999999991
    vertex -38.63453786483046 -7.5 0.0
    vertex -37.34870617778856 -7.5 0.0
  endloop
endfacet
facet normal 0.9816272844448135 0.1908084757905196 0.0
  outer loop
    vertex -37.34870617778856 -7.5 -1.9999999999999991
    vertex -37.154326417961045 -8.500000000000002 0.0
    vertex -37.154326417961045 -8.500000000000002 -1.9999999999999991
  endloop
endfacet
facet normal 0.9816272844448135 0.1908084757905196 0.0
  outer loop
    vertex -37.154326417961045 -8.500000000000002 0.0
    vertex -37.34870617778856 -7.5 -1.9999999999999991
    vertex -37.34870617778856 -7.5 0.0
  endloop
endfacet
facet normal 0.9796411338675267 -0.20075669063507337 0.0
  outer loop
    vertex -37.154326417961045 -8.500000000000002 -1.9999999999999991
    vertex -37.359255226781585 -9.500000000000002 0.0
    vertex -37.359255226781585 -9.500000000000002 -1.9999999999999991
  endloop
endfacet
facet normal 0.9796411338675267 -0.20075669063507337 0.0
  outer loop
    vertex -37.359255226781585 -9.500000000000002 0.0
    vertex -37.154326417961045 -8.500000000000002 -1.9999999999999991
    vertex -37.154326417961045 -8.500000000000002 0.0
  endloop
endfacet
facet normal 0.0 -1.0 0.0
  outer loop
    vertex -37.359255226781585 -9.500000000000002 0.0
    vertex -38.63453786483046 -9.500000000000002 -1.9999999999999991
    vertex -37.359255226781585 -9.500000000000002 -1.9999999999999991
  endloop
endfacet
facet normal 0.0 -1.0 0.0
  outer loop
    vertex -38.63453786483046 -9.500000000000002 -1.9999999999999991
    vertex -37.359255226781585 -9.500000000000002 0.0
    vertex -38.63453786483046 -9.500000000000002 0.0
  endloop
endfacet
facet normal 1.0 0.0 0.0
  outer loop
    vertex -38.63453786483046 -9.500000000000002 -1.9999999999999991
    vertex -38.63453786483046 -10.785831687041902 0.0
    vertex -38.63453786483046 -10.785831687041902 -1.9999999999999991
  endloop
endfacet
facet normal 1.0 0.0 0.0
  outer loop
    vertex -38.63453786483046 -10.785831687041902 0.0
    vertex -38.63453786483046 -9.500000000000002 -1.9999999999999991
    vertex -38.63453786483046 -9.500000000000002 0.0
  endloop
endfacet
facet normal 0.19080847579052068 -0.9816272844448133 0.0
  outer loop
    vertex -38.63453786483046 -10.785831687041902 0.0
    vertex -39.634537864830456 -10.980211446869419 -1.9999999999999991
    vertex -38.63453786483046 -10.785831687041902 -1.9999999999999991
  endloop
endfacet
facet normal 0.19080847579052068 -0.9816272844448133 0.0
  outer loop
    vertex -39.634537864830456 -10.980211446869419 -1.9999999999999991
    vertex -38.63453786483046 -10.785831687041902 0.0
    vertex -39.634537864830456 -10.980211446869419 0.0
  endloop
endfacet
facet normal -0.20075669063507254 -0.9796411338675269 0.0
  outer loop
    vertex -39.634537864830456 -10.980211446869419 0.0
    vertex -40.63453786483046 -10.775282638048882 -1.9999999999999991
    vertex -39.634537864830456 -10.980211446869419 -1.9999999999999991
  endloop
endfacet
facet normal -0.20075669063507254 -0.9796411338675269 0.0
  outer loop
    vertex -40.63453786483046 -10.775282638048882 -1.9999999999999991
    vertex -39.634537864830456 -10.980211446869419 0.0
    vertex -40.63453786483046 -10.775282638048882 0.0
  endloop
endfacet
facet normal -1.0 0.0 0.0
  outer loop
    vertex -40.63453786483046 -9.500000000000002 0.0
    vertex -40.63453786483046 -10.775282638048882 -1.9999999999999991
    vertex -40.63453786483046 -10.775282638048882 0.0
  endloop
endfacet
facet normal -1.0 0.0 0.0
  outer loop
    vertex -40.63453786483046 -10.775282638048882 -1.9999999999999991
    vertex -40.63453786483046 -9.500000000000002 0.0
    vertex -40.63453786483046 -9.500000000000002 -1.9999999999999991
  endloop
endfacet
facet normal 0.0 -1.0 0.0
  outer loop
    vertex -40.63453786483046 -9.500000000000002 0.0
    vertex -41.92036955187236 -9.500000000000002 -1.9999999999999991
    vertex -40.63453786483046 -9.500000000000002 -1.9999999999999991
  endloop
endfacet
facet normal 0.0 -1.0 0.0
  outer loop
    vertex -41.92036955187236 -9.500000000000002 -1.9999999999999991
    vertex -40.63453786483046 -9.500000000000002 0.0
    vertex -41.92036955187236 -9.500000000000002 0.0
  endloop
endfacet
facet normal -0.981627284444814 -0.19080847579051727 0.0
  outer loop
    vertex -42.114749311699875 -8.500000000000002 0.0
    vertex -41.92036955187236 -9.500000000000002 -1.9999999999999991
    vertex -41.92036955187236 -9.500000000000002 0.0
  endloop
endfacet
facet normal -0.981627284444814 -0.19080847579051727 0.0
  outer loop
    vertex -41.92036955187236 -9.500000000000002 -1.9999999999999991
    vertex -42.114749311699875 -8.500000000000002 0.0
    vertex -42.114749311699875 -8.500000000000002 -1.9999999999999991
  endloop
endfacet
facet normal -0.9796411338675269 0.20075669063507307 0.0
  outer loop
    vertex -41.90982050287934 -7.5 0.0
    vertex -42.114749311699875 -8.500000000000002 -1.9999999999999991
    vertex -42.114749311699875 -8.500000000000002 0.0
  endloop
endfacet
facet normal -0.9796411338675269 0.20075669063507307 0.0
  outer loop
    vertex -42.114749311699875 -8.500000000000002 -1.9999999999999991
    vertex -41.90982050287934 -7.5 0.0
    vertex -41.90982050287934 -7.5 -1.9999999999999991
  endloop
endfacet
facet normal 0.0 1.0 0.0
  outer loop
    vertex -41.90982050287934 -7.5 0.0
    vertex -40.63453786483046 -7.5 -1.9999999999999991
    vertex -41.90982050287934 -7.5 -1.9999999999999991
  endloop
endfacet
facet normal 0.0 1.0 0.0
  outer loop
    vertex -40.63453786483046 -7.5 -1.9999999999999991
    vertex -41.90982050287934 -7.5 0.0
    vertex -40.63453786483046 -7.5 0.0
  endloop
endfacet
facet normal -1.0 0.0 0.0
  outer loop
    vertex -40.63453786483046 -6.214168312958099 0.0
    vertex -40.63453786483046 -7.5 -1.9999999999999991
    vertex -40.63453786483046 -7.5 0.0
  endloop
endfacet
facet normal -1.0 0.0 0.0
  outer loop
    vertex -40.63453786483046 -7.5 -1.9999999999999991
    vertex -40.63453786483046 -6.214168312958099 0.0
    vertex -40.63453786483046 -6.214168312958099 -1.9999999999999991
  endloop
endfacet
facet normal -0.1908084757905203 0.9816272844448133 0.0
  outer loop
    vertex -40.63453786483046 -6.214168312958099 0.0
    vertex -39.63453786483046 -6.019788553130582 -1.9999999999999991
    vertex -40.63453786483046 -6.214168312958099 -1.9999999999999991
  endloop
endfacet
facet normal -0.1908084757905203 0.9816272844448133 0.0
  outer loop
    vertex -39.63453786483046 -6.019788553130582 -1.9999999999999991
    vertex -40.63453786483046 -6.214168312958099 0.0
    vertex -39.63453786483046 -6.019788553130582 0.0
  endloop
endfacet
facet normal 1.0 0.0 0.0
  outer loop
    vertex -38.63453786483046 -6.224717361951123 -1.9999999999999991
    vertex -38.63453786483046 -7.5 0.0
    vertex -38.63453786483046 -7.5 -1.9999999999999991
  endloop
endfacet
facet normal 1.0 0.0 0.0
  outer loop
    vertex -38.63453786483046 -7.5 0.0
    vertex -38.63453786483046 -6.224717361951123 -1.9999999999999991
    vertex -38.63453786483046 -6.224717361951123 0.0
  endloop
endfacet
facet normal 0.2007566906350763 0.9796411338675263 0.0
  outer loop
    vertex -39.63453786483046 -6.019788553130582 0.0
    vertex -38.63453786483046 -6.224717361951123 -1.9999999999999991
    vertex -39.63453786483046 -6.019788553130582 -1.9999999999999991
  endloop
endfacet
facet normal 0.2007566906350763 0.9796411338675263 0.0
  outer loop
    vertex -38.63453786483046 -6.224717361951123 -1.9999999999999991
    vertex -39.63453786483046 -6.019788553130582 0.0
    vertex -38.63453786483046 -6.224717361951123 0.0
  endloop
endfacet
facet normal 0.0 -1.0 0.0
  outer loop
    vertex -12.134537864830458 -25.0 3.0
    vertex -102.13453786483045 -25.0 0.0
    vertex -12.134537864830458 -25.0 0.0
  endloop
endfacet
facet normal 0.0 -1.0 0.0
  outer loop
    vertex -102.13453786483045 -25.0 0.0
    vertex -12.134537864830458 -25.0 3.0
    vertex -102.38453786483046 -25.0 0.0
  endloop
endfacet
facet normal 0.0 -1.0 0.0
  outer loop
    vertex -102.38453786483046 -25.0 0.0
    vertex -12.134537864830458 -25.0 3.0
    vertex -102.38453786483046 -25.0 3.0
  endloop
endfacet
facet normal -0.0 -0.0 -1.0
  outer loop
    vertex -114.13453786483048 0.0 0.0
    vertex -103.56726893241522 -24.098476942531725 0.0
    vertex -114.7018067972457 -0.9015230574682738 0.0
  endloop
endfacet
facet normal -0.0 -0.0 -1.0
  outer loop
    vertex -103.56726893241522 -24.098476942531725 0.0
    vertex -114.13453786483048 0.0 0.0
    vertex -95.13453786483046 0.0 0.0
  endloop
endfacet
facet normal -0.0 -0.0 -1.0
  outer loop
    vertex -103.56726893241522 -24.098476942531725 0.0
    vertex -95.13453786483046 0.0 0.0
    vertex -102.13453786483045 -25.0 0.0
  endloop
endfacet
facet normal -0.0 -0.0 -1.0
  outer loop
    vertex -102.13453786483045 -25.0 0.0
    vertex -95.13453786483046 0.0 0.0
    vertex -96.13453786483046 -8.5 0.0
  endloop
endfacet
facet normal -0.0 -0.0 -1.0
  outer loop
    vertex -96.13453786483046 -8.5 0.0
    vertex -95.13453786483046 0.0 0.0
    vertex -96.04935243055314 -7.852952387243697 0.0
  endloop
endfacet
facet normal -0.0 -0.0 -1.0
  outer loop
    vertex -96.04935243055314 -7.852952387243697 0.0
    vertex -95.13453786483046 0.0 0.0
    vertex -95.90315476488483 -7.5 0.0
  endloop
endfacet
facet normal -0.0 -0.0 -1.0
  outer loop
    vertex -95.90315476488483 -7.5 0.0
    vertex -95.13453786483046 0.0 0.0
    vertex -95.79960137429156 -7.249999999999999 0.0
  endloop
endfacet
facet normal -0.0 -0.0 -1.0
  outer loop
    vertex -95.79960137429156 -7.249999999999999 0.0
    vertex -95.13453786483046 0.0 0.0
    vertex -95.40230481779683 -6.732233047033631 0.0
  endloop
endfacet
facet normal -0.0 -0.0 -1.0
  outer loop
    vertex -95.40230481779683 -6.732233047033631 0.0
    vertex -95.13453786483046 0.0 0.0
    vertex -94.88453786483046 -6.334936490538904 0.0
  endloop
endfacet
facet normal -0.0 -0.0 -1.0
  outer loop
    vertex -94.88453786483046 -6.334936490538904 0.0
    vertex -95.13453786483046 0.0 0.0
    vertex -94.28158547758676 -6.08518543427733 0.0
  endloop
endfacet
facet normal -0.0 -0.0 -1.0
  outer loop
    vertex -94.28158547758676 -6.08518543427733 0.0
    vertex -95.13453786483046 0.0 0.0
    vertex -93.63453786483046 -6.0 0.0
  endloop
endfacet
facet normal -0.0 -0.0 -1.0
  outer loop
    vertex -94.88453786483046 -6.334936490538904 0.0
    vertex -94.28158547758676 -6.08518543427733 0.0
    vertex -94.63453786483046 -6.23138309994563 0.0
  endloop
endfacet
facet normal -0.0 -0.0 -1.0
  outer loop
    vertex -36.134537864830456 0.0 0.0
    vertex -39.3974293705838 -6.0112694878802015 0.0
    vertex -39.63453786483046 -6.019788553130582 0.0
  endloop
endfacet
facet normal -0.0 -0.0 -1.0
  outer loop
    vertex -39.3974293705838 -6.0112694878802015 0.0
    vertex -36.134537864830456 0.0 0.0
    vertex -38.761377791940745 -6.157439117736485 0.0
  endloop
endfacet
facet normal -0.0 -0.0 -1.0
  outer loop
    vertex -38.761377791940745 -6.157439117736485 0.0
    vertex -36.134537864830456 0.0 0.0
    vertex -38.63453786483046 -6.224717361951123 0.0
  endloop
endfacet
facet normal -0.0 -0.0 -1.0
  outer loop
    vertex -38.63453786483046 -6.224717361951123 0.0
    vertex -36.134537864830456 0.0 0.0
    vertex -38.18483062929988 -6.463250400454129 0.0
  endloop
endfacet
facet normal -0.0 -0.0 -1.0
  outer loop
    vertex -38.18483062929988 -6.463250400454129 0.0
    vertex -36.134537864830456 0.0 0.0
    vertex -37.707078619005934 -6.907862802492967 0.0
  endloop
endfacet
facet normal -0.0 -0.0 -1.0
  outer loop
    vertex -37.707078619005934 -6.907862802492967 0.0
    vertex -36.134537864830456 0.0 0.0
    vertex -37.36067977103792 -7.460976723410788 0.0
  endloop
endfacet
facet normal -0.0 -0.0 -1.0
  outer loop
    vertex -37.36067977103792 -7.460976723410788 0.0
    vertex -36.134537864830456 0.0 0.0
    vertex -37.34870617778856 -7.5 0.0
  endloop
endfacet
facet normal -0.0 -0.0 -1.0
  outer loop
    vertex -37.34870617778856 -7.5 0.0
    vertex -36.134537864830456 0.0 0.0
    vertex -37.16924059443371 -8.08489836356101 0.0
  endloop
endfacet
facet normal -0.0 -0.0 -1.0
  outer loop
    vertex -37.16924059443371 -8.08489836356101 0.0
    vertex -36.134537864830456 0.0 0.0
    vertex -37.154326417961045 -8.500000000000002 0.0
  endloop
endfacet
facet normal -0.0 -0.0 -1.0
  outer loop
    vertex -37.154326417961045 -8.500000000000002 0.0
    vertex -36.134537864830456 0.0 0.0
    vertex -37.14580735271066 -8.737108494246662 0.0
  endloop
endfacet
facet normal -0.0 -0.0 -1.0
  outer loop
    vertex -102.13453786483045 -25.0 0.0
    vertex -94.28158547758676 -10.91481456572267 0.0
    vertex -12.134537864830458 -25.0 0.0
  endloop
endfacet
facet normal -0.0 -0.0 -1.0
  outer loop
    vertex -94.28158547758676 -10.91481456572267 0.0
    vertex -102.13453786483045 -25.0 0.0
    vertex -94.88453786483046 -10.665063509461095 0.0
  endloop
endfacet
facet normal -0.0 -0.0 -1.0
  outer loop
    vertex -94.88453786483046 -10.665063509461095 0.0
    vertex -102.13453786483045 -25.0 0.0
    vertex -95.40230481779683 -10.267766952966367 0.0
  endloop
endfacet
facet normal -0.0 -0.0 -1.0
  outer loop
    vertex -95.40230481779683 -10.267766952966367 0.0
    vertex -102.13453786483045 -25.0 0.0
    vertex -95.79960137429156 -9.749999999999998 0.0
  endloop
endfacet
facet normal -0.0 -0.0 -1.0
  outer loop
    vertex -95.79960137429156 -9.749999999999998 0.0
    vertex -102.13453786483045 -25.0 0.0
    vertex -96.04935243055314 -9.147047612756301 0.0
  endloop
endfacet
facet normal -0.0 -0.0 -1.0
  outer loop
    vertex -96.04935243055314 -9.147047612756301 0.0
    vertex -102.13453786483045 -25.0 0.0
    vertex -96.13453786483046 -8.5 0.0
  endloop
endfacet
facet normal -0.0 -0.0 -1.0
  outer loop
    vertex -95.79960137429156 -9.749999999999998 0.0
    vertex -96.04935243055314 -9.147047612756301 0.0
    vertex -95.90315476488483 -9.5 0.0
  endloop
endfacet
facet normal -0.0 -0.0 -1.0
  outer loop
    vertex -94.28158547758676 -10.91481456572267 0.0
    vertex -94.88453786483046 -10.665063509461095 0.0
    vertex -94.63453786483046 -10.768616900054369 0.0
  endloop
endfacet
facet normal -0.0 -0.0 -1.0
  outer loop
    vertex -12.134537864830458 -25.0 0.0
    vertex -94.28158547758676 -10.91481456572267 0.0
    vertex -93.63453786483046 -11.0 0.0
  endloop
endfacet
facet normal -0.0 -0.0 -1.0
  outer loop
    vertex -12.134537864830458 -25.0 0.0
    vertex -93.63453786483046 -11.0 0.0
    vertex -92.98749025207417 -10.91481456572267 0.0
  endloop
endfacet
facet normal -0.0 -0.0 -1.0
  outer loop
    vertex -12.134537864830458 -25.0 0.0
    vertex -92.98749025207417 -10.91481456572267 0.0
    vertex -92.63453786483046 -10.76861690005437 0.0
  endloop
endfacet
facet normal -0.0 -0.0 -1.0
  outer loop
    vertex -12.134537864830458 -25.0 0.0
    vertex -92.63453786483046 -10.76861690005437 0.0
    vertex -92.38453786483046 -10.665063509461097 0.0
  endloop
endfacet
facet normal -0.0 -0.0 -1.0
  outer loop
    vertex -12.134537864830458 -25.0 0.0
    vertex -92.38453786483046 -10.665063509461097 0.0
    vertex -91.8667709118641 -10.267766952966369 0.0
  endloop
endfacet
facet normal -0.0 -0.0 -1.0
  outer loop
    vertex -12.134537864830458 -25.0 0.0
    vertex -91.8667709118641 -10.267766952966369 0.0
    vertex -91.46947435536937 -9.75 0.0
  endloop
endfacet
facet normal -0.0 -0.0 -1.0
  outer loop
    vertex -12.134537864830458 -25.0 0.0
    vertex -91.46947435536937 -9.75 0.0
    vertex -91.3659209647761 -9.5 0.0
  endloop
endfacet
facet normal -0.0 -0.0 -1.0
  outer loop
    vertex -12.134537864830458 -25.0 0.0
    vertex -91.3659209647761 -9.5 0.0
    vertex -91.21972329910778 -9.147047612756303 0.0
  endloop
endfacet
facet normal -0.0 -0.0 -1.0
  outer loop
    vertex -12.134537864830458 -25.0 0.0
    vertex -91.21972329910778 -9.147047612756303 0.0
    vertex -91.13453786483046 -8.5 0.0
  endloop
endfacet
facet normal -0.0 -0.0 -1.0
  outer loop
    vertex -12.134537864830458 -25.0 0.0
    vertex -91.13453786483046 -8.5 0.0
    vertex -40.50769793772018 -10.842560882263518 0.0
  endloop
endfacet
facet normal -0.0 -0.0 -1.0
  outer loop
    vertex -40.50769793772018 -10.842560882263518 0.0
    vertex -91.13453786483046 -8.5 0.0
    vertex -41.084245100361045 -10.536749599545873 0.0
  endloop
endfacet
facet normal -0.0 -0.0 -1.0
  outer loop
    vertex -41.084245100361045 -10.536749599545873 0.0
    vertex -91.13453786483046 -8.5 0.0
    vertex -41.561997110654985 -10.092137197507036 0.0
  endloop
endfacet
facet normal -0.0 -0.0 -1.0
  outer loop
    vertex -41.561997110654985 -10.092137197507036 0.0
    vertex -91.13453786483046 -8.5 0.0
    vertex -41.90839595862299 -9.539023276589216 0.0
  endloop
endfacet
facet normal -0.0 -0.0 -1.0
  outer loop
    vertex -41.90839595862299 -9.539023276589216 0.0
    vertex -91.13453786483046 -8.5 0.0
    vertex -41.92036955187236 -9.500000000000002 0.0
  endloop
endfacet
facet normal -0.0 -0.0 -1.0
  outer loop
    vertex -41.92036955187236 -9.500000000000002 0.0
    vertex -91.13453786483046 -8.5 0.0
    vertex -42.09983513522721 -8.915101636438992 0.0
  endloop
endfacet
facet normal -0.0 -0.0 -1.0
  outer loop
    vertex -42.09983513522721 -8.915101636438992 0.0
    vertex -91.13453786483046 -8.5 0.0
    vertex -42.114749311699875 -8.500000000000002 0.0
  endloop
endfacet
facet normal -0.0 -0.0 -1.0
  outer loop
    vertex -40.50769793772018 -10.842560882263518 0.0
    vertex -41.084245100361045 -10.536749599545873 0.0
    vertex -40.63453786483046 -10.775282638048882 0.0
  endloop
endfacet
facet normal -0.0 -0.0 -1.0
  outer loop
    vertex -12.134537864830458 -25.0 0.0
    vertex -40.50769793772018 -10.842560882263518 0.0
    vertex -39.871646359077126 -10.9887305121198 0.0
  endloop
endfacet
facet normal -0.0 -0.0 -1.0
  outer loop
    vertex -12.134537864830458 -25.0 0.0
    vertex -39.871646359077126 -10.9887305121198 0.0
    vertex -39.634537864830456 -10.980211446869419 0.0
  endloop
endfacet
facet normal -0.0 -0.0 -1.0
  outer loop
    vertex -12.134537864830458 -25.0 0.0
    vertex -39.634537864830456 -10.980211446869419 0.0
    vertex -39.21943622839147 -10.965297270396752 0.0
  endloop
endfacet
facet normal -0.0 -0.0 -1.0
  outer loop
    vertex -12.134537864830458 -25.0 0.0
    vertex -39.21943622839147 -10.965297270396752 0.0
    vertex -38.63453786483046 -10.785831687041902 0.0
  endloop
endfacet
facet normal -0.0 -0.0 -1.0
  outer loop
    vertex -12.134537864830458 -25.0 0.0
    vertex -38.63453786483046 -10.785831687041902 0.0
    vertex -38.595514588241244 -10.773858093792535 0.0
  endloop
endfacet
facet normal -0.0 -0.0 -1.0
  outer loop
    vertex -12.134537864830458 -25.0 0.0
    vertex -38.595514588241244 -10.773858093792535 0.0
    vertex -38.04240066732343 -10.427459245824526 0.0
  endloop
endfacet
facet normal -0.0 -0.0 -1.0
  outer loop
    vertex -12.134537864830458 -25.0 0.0
    vertex -38.04240066732343 -10.427459245824526 0.0
    vertex -37.597788265284585 -9.949707235530585 0.0
  endloop
endfacet
facet normal -0.0 -0.0 -1.0
  outer loop
    vertex -12.134537864830458 -25.0 0.0
    vertex -37.597788265284585 -9.949707235530585 0.0
    vertex -37.359255226781585 -9.500000000000002 0.0
  endloop
endfacet
facet normal -0.0 -0.0 -1.0
  outer loop
    vertex -12.134537864830458 -25.0 0.0
    vertex -37.359255226781585 -9.500000000000002 0.0
    vertex -37.29197698256694 -9.37316007288972 0.0
  endloop
endfacet
facet normal -0.0 -0.0 -1.0
  outer loop
    vertex -12.134537864830458 -25.0 0.0
    vertex -37.29197698256694 -9.37316007288972 0.0
    vertex -37.14580735271066 -8.737108494246662 0.0
  endloop
endfacet
facet normal -0.0 -0.0 -1.0
  outer loop
    vertex -12.134537864830458 -25.0 0.0
    vertex -37.14580735271066 -8.737108494246662 0.0
    vertex -36.134537864830456 0.0 0.0
  endloop
endfacet
facet normal -0.0 -0.0 -1.0
  outer loop
    vertex -12.134537864830458 -25.0 0.0
    vertex -36.134537864830456 0.0 0.0
    vertex -24.13453786483046 0.0 0.0
  endloop
endfacet
facet normal -0.0 -0.0 -1.0
  outer loop
    vertex -12.134537864830458 -25.0 0.0
    vertex -24.13453786483046 0.0 0.0
    vertex -22.701806797245688 -0.9015230574682738 0.0
  endloop
endfacet
facet normal -0.0 -0.0 -1.0
  outer loop
    vertex -12.134537864830458 -25.0 0.0
    vertex -22.701806797245688 -0.9015230574682738 0.0
    vertex -11.56726893241523 -24.098476942531725 0.0
  endloop
endfacet
facet normal 0.9950371902099893 -1.6244316257699705e-16 -0.09950371902099867
  outer loop
    vertex -93.33453786483047 -7.819414929983693 -9.0
    vertex -92.63453786483046 -7.5 -1.9999999999999991
    vertex -93.33453786483047 -8.200000000000001 -9.0
  endloop
endfacet
facet normal 0.9950371902099893 -1.6244316257699705e-16 -0.09950371902099867
  outer loop
    vertex -92.63453786483046 -7.5 -1.9999999999999991
    vertex -93.33453786483047 -7.819414929983693 -9.0
    vertex -92.63453786483046 -6.231383099945631 -1.9999999999999991
  endloop
endfacet
facet normal -1.6244316257699677e-16 -0.9950371902099893 -0.09950371902099896
  outer loop
    vertex -91.3659209647761 -9.5 -1.9999999999999991
    vertex -93.33453786483047 -8.799999999999999 -9.0
    vertex -92.95395279481416 -8.8 -9.0
  endloop
endfacet
facet normal -1.6244316257699677e-16 -0.9950371902099893 -0.09950371902099896
  outer loop
    vertex -93.33453786483047 -8.799999999999999 -9.0
    vertex -91.3659209647761 -9.5 -1.9999999999999991
    vertex -92.63453786483046 -9.5 -1.9999999999999991
  endloop
endfacet
facet normal -3.248863251539903e-16 -0.9950371902099893 -0.09950371902099897
  outer loop
    vertex -94.63453786483046 -9.5 -1.9999999999999991
    vertex -94.31512293484677 -8.799999999999999 -9.0
    vertex -93.93453786483045 -8.799999999999999 -9.0
  endloop
endfacet
facet normal -3.248863251539903e-16 -0.9950371902099893 -0.09950371902099897
  outer loop
    vertex -94.31512293484677 -8.799999999999999 -9.0
    vertex -94.63453786483046 -9.5 -1.9999999999999991
    vertex -95.90315476488483 -9.5 -1.9999999999999991
  endloop
endfacet
facet normal -0.995037190209989 3.57374957669393e-15 -0.09950371902100003
  outer loop
    vertex -94.63453786483046 -7.5 -1.9999999999999991
    vertex -93.93453786483045 -7.819414929983692 -9.0
    vertex -93.93453786483046 -8.199999999999998 -9.0
  endloop
endfacet
facet normal -0.995037190209989 3.57374957669393e-15 -0.09950371902100003
  outer loop
    vertex -93.93453786483045 -7.819414929983692 -9.0
    vertex -94.63453786483046 -7.5 -1.9999999999999991
    vertex -94.63453786483046 -6.23138309994563 -1.9999999999999991
  endloop
endfacet
facet normal -0.2190242072559352 -0.9465868825657586 -0.23664672064144024
  outer loop
    vertex -93.63453786483046 -11.0 -1.9999999999999991
    vertex -93.93453786483045 -9.18058507001631 -9.0
    vertex -93.63453786483048 -9.249999999999991 -9.0
  endloop
endfacet
facet normal -0.2190242072559352 -0.9465868825657586 -0.23664672064144024
  outer loop
    vertex -93.93453786483045 -9.18058507001631 -9.0
    vertex -93.63453786483046 -11.0 -1.9999999999999991
    vertex -94.63453786483046 -10.768616900054369 -1.9999999999999991
  endloop
endfacet
facet normal 0.21902420725593885 0.9465868825657581 -0.2366467206414396
  outer loop
    vertex -93.63453786483046 -6.0 -1.9999999999999991
    vertex -93.33453786483047 -7.819414929983693 -9.0
    vertex -93.63453786483045 -7.750000000000001 -9.0
  endloop
endfacet
facet normal 0.21902420725593885 0.9465868825657581 -0.2366467206414396
  outer loop
    vertex -93.33453786483047 -7.819414929983693 -9.0
    vertex -93.63453786483046 -6.0 -1.9999999999999991
    vertex -92.63453786483046 -6.231383099945631 -1.9999999999999991
  endloop
endfacet
facet normal 0.9465868825657598 -0.21902420725593064 -0.23664672064144032
  outer loop
    vertex -92.95395279481416 -8.8 -9.0
    vertex -91.13453786483046 -8.5 -1.9999999999999991
    vertex -91.3659209647761 -9.5 -1.9999999999999991
  endloop
endfacet
facet normal 0.9465868825657598 -0.21902420725593064 -0.23664672064144032
  outer loop
    vertex -91.13453786483046 -8.5 -1.9999999999999991
    vertex -92.95395279481416 -8.8 -9.0
    vertex -92.88453786483046 -8.5 -9.0
  endloop
endfacet
facet normal -0.9465868825657606 -0.21902420725592683 -0.23664672064144016
  outer loop
    vertex -96.13453786483046 -8.5 -1.9999999999999991
    vertex -94.31512293484677 -8.799999999999999 -9.0
    vertex -95.90315476488483 -9.5 -1.9999999999999991
  endloop
endfacet
facet normal -0.9465868825657606 -0.21902420725592683 -0.23664672064144016
  outer loop
    vertex -94.31512293484677 -8.799999999999999 -9.0
    vertex -96.13453786483046 -8.5 -1.9999999999999991
    vertex -94.38453786483045 -8.500000000000004 -9.0
  endloop
endfacet
facet normal -1.6244316257699613e-16 0.9950371902099893 -0.09950371902099901
  outer loop
    vertex -92.63453786483046 -7.5 -1.9999999999999991
    vertex -92.95395279481416 -8.200000000000001 -9.0
    vertex -93.33453786483047 -8.200000000000001 -9.0
  endloop
endfacet
facet normal -1.6244316257699613e-16 0.9950371902099893 -0.09950371902099901
  outer loop
    vertex -92.95395279481416 -8.200000000000001 -9.0
    vertex -92.63453786483046 -7.5 -1.9999999999999991
    vertex -91.3659209647761 -7.5 -1.9999999999999991
  endloop
endfacet
facet normal 0.94658688256576 0.21902420725592986 -0.23664672064143988
  outer loop
    vertex -92.95395279481416 -8.200000000000001 -9.0
    vertex -91.13453786483046 -8.5 -1.9999999999999991
    vertex -92.88453786483046 -8.5 -9.0
  endloop
endfacet
facet normal 0.94658688256576 0.21902420725592986 -0.23664672064143988
  outer loop
    vertex -91.13453786483046 -8.5 -1.9999999999999991
    vertex -92.95395279481416 -8.200000000000001 -9.0
    vertex -91.3659209647761 -7.5 -1.9999999999999991
  endloop
endfacet
facet normal -0.21902420725593552 0.9465868825657586 -0.2366467206414399
  outer loop
    vertex -94.63453786483046 -6.23138309994563 -1.9999999999999991
    vertex -93.63453786483045 -7.750000000000001 -9.0
    vertex -93.93453786483045 -7.819414929983692 -9.0
  endloop
endfacet
facet normal -0.21902420725593552 0.9465868825657586 -0.2366467206414399
  outer loop
    vertex -93.63453786483045 -7.750000000000001 -9.0
    vertex -94.63453786483046 -6.23138309994563 -1.9999999999999991
    vertex -93.63453786483046 -6.0 -1.9999999999999991
  endloop
endfacet
facet normal 0.21902420725593177 -0.9465868825657594 -0.2366467206414406
  outer loop
    vertex -92.63453786483046 -10.76861690005437 -1.9999999999999991
    vertex -93.63453786483048 -9.249999999999991 -9.0
    vertex -93.33453786483047 -9.180585070016305 -9.0
  endloop
endfacet
facet normal 0.21902420725593177 -0.9465868825657594 -0.2366467206414406
  outer loop
    vertex -93.63453786483048 -9.249999999999991 -9.0
    vertex -92.63453786483046 -10.76861690005437 -1.9999999999999991
    vertex -93.63453786483046 -11.0 -1.9999999999999991
  endloop
endfacet
facet normal -3.2488632515399483e-16 0.9950371902099893 -0.09950371902099878
  outer loop
    vertex -95.90315476488483 -7.5 -1.9999999999999991
    vertex -93.93453786483046 -8.199999999999998 -9.0
    vertex -94.31512293484677 -8.199999999999998 -9.0
  endloop
endfacet
facet normal -3.2488632515399483e-16 0.9950371902099893 -0.09950371902099878
  outer loop
    vertex -93.93453786483046 -8.199999999999998 -9.0
    vertex -95.90315476488483 -7.5 -1.9999999999999991
    vertex -94.63453786483046 -7.5 -1.9999999999999991
  endloop
endfacet
facet normal -0.995037190209989 0.0 -0.09950371902100016
  outer loop
    vertex -94.63453786483046 -9.5 -1.9999999999999991
    vertex -93.93453786483045 -9.18058507001631 -9.0
    vertex -94.63453786483046 -10.768616900054369 -1.9999999999999991
  endloop
endfacet
facet normal -0.995037190209989 0.0 -0.09950371902100016
  outer loop
    vertex -93.93453786483045 -9.18058507001631 -9.0
    vertex -94.63453786483046 -9.5 -1.9999999999999991
    vertex -93.93453786483045 -8.799999999999999 -9.0
  endloop
endfacet
facet normal -0.9465868825657596 0.2190242072559308 -0.2366467206414409
  outer loop
    vertex -96.13453786483046 -8.5 -1.9999999999999991
    vertex -94.31512293484677 -8.199999999999998 -9.0
    vertex -94.38453786483045 -8.500000000000004 -9.0
  endloop
endfacet
facet normal -0.9465868825657596 0.2190242072559308 -0.2366467206414409
  outer loop
    vertex -94.31512293484677 -8.199999999999998 -9.0
    vertex -96.13453786483046 -8.5 -1.9999999999999991
    vertex -95.90315476488483 -7.5 -1.9999999999999991
  endloop
endfacet
facet normal 0.9950371902099893 3.2488632515399345e-16 -0.09950371902099868
  outer loop
    vertex -93.33453786483047 -9.180585070016305 -9.0
    vertex -92.63453786483046 -9.5 -1.9999999999999991
    vertex -92.63453786483046 -10.76861690005437 -1.9999999999999991
  endloop
endfacet
facet normal 0.9950371902099893 3.2488632515399345e-16 -0.09950371902099868
  outer loop
    vertex -92.63453786483046 -9.5 -1.9999999999999991
    vertex -93.33453786483047 -9.180585070016305 -9.0
    vertex -93.33453786483047 -8.799999999999999 -9.0
  endloop
endfacet
facet normal -0.0 -0.0 -1.0
  outer loop
    vertex -114.13453786483048 0.0 0.0
    vertex -114.49776850145945 -0.400676914430344 0.0
    vertex -114.39574935356633 -0.150253842911379 0.0
  endloop
endfacet
facet normal -0.0 -0.0 -1.0
  outer loop
    vertex -22.701806797245688 -0.9015230574682738 0.0
    vertex -24.13453786483046 0.0 0.0
    vertex -23.32362750896887 -0.3005076858227579 0.0
  endloop
endfacet
facet normal -0.0 -0.0 -1.0
  outer loop
    vertex -23.32362750896887 -0.3005076858227579 0.0
    vertex -24.13453786483046 0.0 0.0
    vertex -23.479082686899662 -0.15025384291137894 0.0
  endloop
endfacet
facet normal -0.0 -0.0 -1.0
  outer loop
    vertex -22.701806797245688 -0.9015230574682738 0.0
    vertex -23.32362750896887 -0.3005076858227579 0.0
    vertex -23.12089992000347 -0.3756346072784474 0.0
  endloop
endfacet
facet normal -0.0 -0.0 -1.0
  outer loop
    vertex -11.771307228201467 -24.599323085569658 0.0
    vertex -11.873326376094585 -24.84974615708862 0.0
    vertex -12.134537864830458 -25.0 0.0
  endloop
endfacet
facet normal -0.0 -0.0 -1.0
  outer loop
    vertex -102.13453786483045 -25.0 0.0
    vertex -102.94544822069204 -24.699492314177242 0.0
    vertex -103.56726893241522 -24.098476942531725 0.0
  endloop
endfacet
facet normal -0.0 -0.0 -1.0
  outer loop
    vertex -102.13453786483045 -25.0 0.0
    vertex -102.78999304276125 -24.84974615708862 0.0
    vertex -102.94544822069204 -24.699492314177242 0.0
  endloop
endfacet
facet normal -0.0 -0.0 -1.0
  outer loop
    vertex -102.78999304276125 -24.84974615708862 0.0
    vertex -102.13453786483045 -25.0 0.0
    vertex -102.38453786483046 -25.0 0.0
  endloop
endfacet
facet normal -0.0 -0.0 -1.0
  outer loop
    vertex -102.94544822069204 -24.699492314177242 0.0
    vertex -103.14817580965745 -24.62436539272155 0.0
    vertex -103.56726893241522 -24.098476942531725 0.0
  endloop
endfacet
facet normal -0.34748774008583955 -0.9376845261014155 0.0
  outer loop
    vertex -102.38453786483046 -25.0 3.0
    vertex -102.78999304276125 -24.84974615708862 0.0
    vertex -102.38453786483046 -25.0 0.0
  endloop
endfacet
facet normal -0.34748774008583955 -0.9376845261014155 0.0
  outer loop
    vertex -102.78999304276125 -24.84974615708862 0.0
    vertex -102.38453786483046 -25.0 3.0
    vertex -102.78999304276125 -24.84974615708862 3.0
  endloop
endfacet
facet normal -0.7820408778738653 -0.6232271378352151 0.0
  outer loop
    vertex -103.56726893241522 -24.098476942531725 3.0
    vertex -103.14817580965745 -24.62436539272155 0.0
    vertex -103.14817580965745 -24.62436539272155 3.0
  endloop
endfacet
facet normal -0.7820408778738653 -0.6232271378352151 0.0
  outer loop
    vertex -103.14817580965745 -24.62436539272155 0.0
    vertex -103.56726893241522 -24.098476942531725 3.0
    vertex -103.56726893241522 -24.098476942531725 0.0
  endloop
endfacet
facet normal -0.5325734373845734 -0.8463837981627366 0.0
  outer loop
    vertex -102.78999304276125 -24.84974615708862 3.0
    vertex -103.14817580965745 -24.62436539272155 0.0
    vertex -102.78999304276125 -24.84974615708862 0.0
  endloop
endfacet
facet normal -0.5325734373845734 -0.8463837981627366 0.0
  outer loop
    vertex -103.14817580965745 -24.62436539272155 0.0
    vertex -102.78999304276125 -24.84974615708862 3.0
    vertex -103.14817580965745 -24.62436539272155 3.0
  endloop
endfacet
facet normal 0.22344025082110605 0.9747176279892558 0.0
  outer loop
    vertex -24.13453786483046 0.0 3.0
    vertex -23.479082686899662 -0.15025384291137894 0.0
    vertex -24.13453786483046 0.0 0.0
  endloop
endfacet
facet normal 0.22344025082110605 0.9747176279892558 0.0
  outer loop
    vertex -23.479082686899662 -0.15025384291137894 0.0
    vertex -24.13453786483046 0.0 3.0
    vertex -23.479082686899662 -0.15025384291137894 3.0
  endloop
endfacet
facet normal 0.7820408778738713 0.6232271378352074 0.0
  outer loop
    vertex -23.12089992000347 -0.3756346072784474 0.0
    vertex -22.701806797245688 -0.9015230574682738 3.0
    vertex -22.701806797245688 -0.9015230574682738 0.0
  endloop
endfacet
facet normal 0.7820408778738713 0.6232271378352074 0.0
  outer loop
    vertex -22.701806797245688 -0.9015230574682738 3.0
    vertex -23.12089992000347 -0.3756346072784474 0.0
    vertex -23.12089992000347 -0.3756346072784474 3.0
  endloop
endfacet
facet normal 0.5325734373845683 0.8463837981627399 -0.0
  outer loop
    vertex -23.479082686899662 -0.15025384291137894 3.0
    vertex -23.12089992000347 -0.3756346072784474 0.0
    vertex -23.479082686899662 -0.15025384291137894 0.0
  endloop
endfacet
facet normal 0.5325734373845683 0.8463837981627399 -0.0
  outer loop
    vertex -23.12089992000347 -0.3756346072784474 0.0
    vertex -23.479082686899662 -0.15025384291137894 3.0
    vertex -23.12089992000347 -0.3756346072784474 3.0
  endloop
endfacet
facet normal -0.0 -0.0 -1.0
  outer loop
    vertex -114.13453786483048 0.0 0.0
    vertex -114.7018067972457 -0.9015230574682738 0.0
    vertex -114.49776850145945 -0.400676914430344 0.0
  endloop
endfacet
facet normal -0.0 -0.0 -1.0
  outer loop
    vertex -114.49776850145945 -0.400676914430344 0.0
    vertex -114.7018067972457 -0.9015230574682738 0.0
    vertex -114.67938381977395 -0.6010153716455159 0.0
  endloop
endfacet
facet normal -0.0 -0.0 -1.0
  outer loop
    vertex -114.39574935356633 -0.150253842911379 0.0
    vertex -114.67938381977395 -0.6010153716455159 0.0
    vertex -114.57736467188084 -0.3505923001265509 0.0
  endloop
endfacet
facet normal -0.4986138619059698 0.8668242132723418 0.0
  outer loop
    vertex -114.39574935356633 -0.150253842911379 2.9999999999999996
    vertex -114.13453786483048 0.0 0.0
    vertex -114.39574935356633 -0.150253842911379 0.0
  endloop
endfacet
facet normal -0.4986138619059698 0.8668242132723418 0.0
  outer loop
    vertex -114.13453786483048 0.0 0.0
    vertex -114.39574935356633 -0.150253842911379 2.9999999999999996
    vertex -114.13453786483048 0.0 2.9999999999999996
  endloop
endfacet
facet normal -0.7408791250654816 0.6716383863674011 0.0
  outer loop
    vertex -114.39574935356633 -0.150253842911379 2.9999999999999996
    vertex -114.57736467188084 -0.3505923001265509 0.0
    vertex -114.57736467188084 -0.3505923001265509 2.9999999999999996
  endloop
endfacet
facet normal -0.7408791250654816 0.6716383863674011 0.0
  outer loop
    vertex -114.57736467188084 -0.3505923001265509 0.0
    vertex -114.39574935356633 -0.150253842911379 2.9999999999999996
    vertex -114.39574935356633 -0.150253842911379 0.0
  endloop
endfacet
facet normal -0.926098906331856 0.3772808180797699 0.0
  outer loop
    vertex -114.57736467188084 -0.3505923001265509 2.9999999999999996
    vertex -114.67938381977395 -0.6010153716455159 0.0
    vertex -114.67938381977395 -0.6010153716455159 2.9999999999999996
  endloop
endfacet
facet normal -0.926098906331856 0.3772808180797699 0.0
  outer loop
    vertex -114.67938381977395 -0.6010153716455159 0.0
    vertex -114.57736467188084 -0.3505923001265509 2.9999999999999996
    vertex -114.57736467188084 -0.3505923001265509 0.0
  endloop
endfacet
facet normal -0.9972277238119492 0.0744101260638546 0.0
  outer loop
    vertex -114.67938381977395 -0.6010153716455159 2.9999999999999996
    vertex -114.7018067972457 -0.9015230574682738 0.0
    vertex -114.7018067972457 -0.9015230574682738 2.9999999999999996
  endloop
endfacet
facet normal -0.9972277238119492 0.0744101260638546 0.0
  outer loop
    vertex -114.7018067972457 -0.9015230574682738 0.0
    vertex -114.67938381977395 -0.6010153716455159 2.9999999999999996
    vertex -114.67938381977395 -0.6010153716455159 0.0
  endloop
endfacet
facet normal -0.0 -0.0 -1.0
  outer loop
    vertex -11.56726893241523 -24.098476942531725 0.0
    vertex -11.771307228201467 -24.599323085569658 0.0
    vertex -12.134537864830458 -25.0 0.0
  endloop
endfacet
facet normal -0.0 -0.0 -1.0
  outer loop
    vertex -11.56726893241523 -24.098476942531725 0.0
    vertex -11.589691909886971 -24.398984628354484 0.0
    vertex -11.771307228201467 -24.599323085569658 0.0
  endloop
endfacet
facet normal -0.0 -0.0 -1.0
  outer loop
    vertex -11.589691909886971 -24.398984628354484 0.0
    vertex -11.691711057780088 -24.649407699873446 0.0
    vertex -11.873326376094585 -24.84974615708862 0.0
  endloop
endfacet
facet normal 0.7408791250654845 -0.671638386367398 0.0
  outer loop
    vertex -11.691711057780088 -24.649407699873446 0.0
    vertex -11.873326376094585 -24.84974615708862 3.0
    vertex -11.873326376094585 -24.84974615708862 0.0
  endloop
endfacet
facet normal 0.7408791250654845 -0.671638386367398 0.0
  outer loop
    vertex -11.873326376094585 -24.84974615708862 3.0
    vertex -11.691711057780088 -24.649407699873446 0.0
    vertex -11.691711057780088 -24.649407699873446 3.0
  endloop
endfacet
facet normal 0.9260989063318543 -0.37728081807977387 0.0
  outer loop
    vertex -11.589691909886971 -24.398984628354484 0.0
    vertex -11.691711057780088 -24.649407699873446 3.0
    vertex -11.691711057780088 -24.649407699873446 0.0
  endloop
endfacet
facet normal 0.9260989063318543 -0.37728081807977387 0.0
  outer loop
    vertex -11.691711057780088 -24.649407699873446 3.0
    vertex -11.589691909886971 -24.398984628354484 0.0
    vertex -11.589691909886971 -24.398984628354484 3.0
  endloop
endfacet
facet normal 0.9972277238119486 -0.07441012606386345 0.0
  outer loop
    vertex -11.56726893241523 -24.098476942531725 0.0
    vertex -11.589691909886971 -24.398984628354484 3.0
    vertex -11.589691909886971 -24.398984628354484 0.0
  endloop
endfacet
facet normal 0.9972277238119486 -0.07441012606386345 0.0
  outer loop
    vertex -11.589691909886971 -24.398984628354484 3.0
    vertex -11.56726893241523 -24.098476942531725 0.0
    vertex -11.56726893241523 -24.098476942531725 3.0
  endloop
endfacet
facet normal 0.4986138619059693 -0.8668242132723422 0.0
  outer loop
    vertex -11.873326376094585 -24.84974615708862 3.0
    vertex -12.134537864830458 -25.0 0.0
    vertex -11.873326376094585 -24.84974615708862 0.0
  endloop
endfacet
facet normal 0.4986138619059693 -0.8668242132723422 0.0
  outer loop
    vertex -12.134537864830458 -25.0 0.0
    vertex -11.873326376094585 -24.84974615708862 3.0
    vertex -12.134537864830458 -25.0 3.0
  endloop
endfacet
facet normal -0.0 -0.0 -1.0
  outer loop
    vertex -92.95395279481416 -8.200000000000001 -9.0
    vertex -93.33453786483047 -8.799999999999999 -9.0
    vertex -93.33453786483047 -8.200000000000001 -9.0
  endloop
endfacet
facet normal -0.0 -0.0 -1.0
  outer loop
    vertex -93.33453786483047 -8.799999999999999 -9.0
    vertex -92.95395279481416 -8.200000000000001 -9.0
    vertex -92.95395279481416 -8.8 -9.0
  endloop
endfacet
facet normal -0.0 -0.0 -1.0
  outer loop
    vertex -92.95395279481416 -8.8 -9.0
    vertex -92.95395279481416 -8.200000000000001 -9.0
    vertex -92.88453786483046 -8.5 -9.0
  endloop
endfacet
facet normal -0.0 -0.0 -1.0
  outer loop
    vertex -94.31512293484677 -8.199999999999998 -9.0
    vertex -94.31512293484677 -8.799999999999999 -9.0
    vertex -94.38453786483045 -8.500000000000004 -9.0
  endloop
endfacet
facet normal -0.0 -0.0 -1.0
  outer loop
    vertex -94.31512293484677 -8.799999999999999 -9.0
    vertex -94.31512293484677 -8.199999999999998 -9.0
    vertex -93.93453786483045 -8.799999999999999 -9.0
  endloop
endfacet
facet normal -0.0 -0.0 -1.0
  outer loop
    vertex -93.93453786483045 -8.799999999999999 -9.0
    vertex -94.31512293484677 -8.199999999999998 -9.0
    vertex -93.93453786483046 -8.199999999999998 -9.0
  endloop
endfacet
facet normal -0.0 -0.0 -1.0
  outer loop
    vertex -93.93453786483045 -8.799999999999999 -9.0
    vertex -93.93453786483046 -8.199999999999998 -9.0
    vertex -93.93453786483045 -7.819414929983692 -9.0
  endloop
endfacet
facet normal -0.0 -0.0 -1.0
  outer loop
    vertex -93.93453786483045 -8.799999999999999 -9.0
    vertex -93.93453786483045 -7.819414929983692 -9.0
    vertex -93.63453786483045 -7.750000000000001 -9.0
  endloop
endfacet
facet normal -0.0 -0.0 -1.0
  outer loop
    vertex -93.93453786483045 -8.799999999999999 -9.0
    vertex -93.63453786483045 -7.750000000000001 -9.0
    vertex -93.93453786483045 -9.18058507001631 -9.0
  endloop
endfacet
facet normal -0.0 -0.0 -1.0
  outer loop
    vertex -93.93453786483045 -9.18058507001631 -9.0
    vertex -93.63453786483045 -7.750000000000001 -9.0
    vertex -93.63453786483048 -9.249999999999991 -9.0
  endloop
endfacet
facet normal -0.0 -0.0 -1.0
  outer loop
    vertex -93.63453786483048 -9.249999999999991 -9.0
    vertex -93.63453786483045 -7.750000000000001 -9.0
    vertex -93.33453786483047 -9.180585070016305 -9.0
  endloop
endfacet
facet normal -0.0 -0.0 -1.0
  outer loop
    vertex -93.33453786483047 -9.180585070016305 -9.0
    vertex -93.63453786483045 -7.750000000000001 -9.0
    vertex -93.33453786483047 -7.819414929983693 -9.0
  endloop
endfacet
facet normal -0.0 -0.0 -1.0
  outer loop
    vertex -93.33453786483047 -9.180585070016305 -9.0
    vertex -93.33453786483047 -7.819414929983693 -9.0
    vertex -93.33453786483047 -8.200000000000001 -9.0
  endloop
endfacet
facet normal -0.0 -0.0 -1.0
  outer loop
    vertex -93.33453786483047 -9.180585070016305 -9.0
    vertex -93.33453786483047 -8.200000000000001 -9.0
    vertex -93.33453786483047 -8.799999999999999 -9.0
  endloop
endfacet
facet normal 2.6135063645865187e-16 1.1433503085123084e-16 -1.0
  outer loop
    vertex -38.934936371526476 -8.200000000000001 -9.0
    vertex -39.32068587763905 -8.799999999999997 -9.0
    vertex -39.32068587763905 -8.200000000000001 -9.0
  endloop
endfacet
facet normal 2.6135063645865187e-16 1.1433503085123084e-16 -1.0
  outer loop
    vertex -39.32068587763905 -8.799999999999997 -9.0
    vertex -38.934936371526476 -8.200000000000001 -9.0
    vertex -38.938101086224385 -8.799999999999997 -9.0
  endloop
endfacet
facet normal 2.6135063645865187e-16 1.1433503085123084e-16 -1.0
  outer loop
    vertex -38.938101086224385 -8.799999999999997 -9.0
    vertex -38.934936371526476 -8.200000000000001 -9.0
    vertex -38.87662244357823 -8.5 -9.0
  endloop
endfacet
facet normal 2.6135063645865187e-16 1.1433503085123084e-16 -1.0
  outer loop
    vertex -39.620685877639055 -7.755936565939175 -9.0
    vertex -39.92068587763905 -8.199999999999998 -9.0
    vertex -39.92068587763906 -7.814250493887432 -9.0
  endloop
endfacet
facet normal 2.6135063645865187e-16 1.1433503085123084e-16 -1.0
  outer loop
    vertex -39.92068587763905 -8.199999999999998 -9.0
    vertex -39.620685877639055 -7.755936565939175 -9.0
    vertex -39.92068587763905 -8.799999999999999 -9.0
  endloop
endfacet
facet normal 2.6135063645865187e-16 1.1433503085123084e-16 -1.0
  outer loop
    vertex -39.92068587763905 -8.799999999999999 -9.0
    vertex -39.620685877639055 -7.755936565939175 -9.0
    vertex -39.92068587763905 -9.182584791414664 -9.0
  endloop
endfacet
facet normal 2.6135063645865187e-16 1.1433503085123084e-16 -1.0
  outer loop
    vertex -39.92068587763905 -9.182584791414664 -9.0
    vertex -39.620685877639055 -7.755936565939175 -9.0
    vertex -39.62068587763905 -9.244063434060825 -9.0
  endloop
endfacet
facet normal 2.6135063645865187e-16 1.1433503085123084e-16 -1.0
  outer loop
    vertex -39.62068587763905 -9.244063434060825 -9.0
    vertex -39.620685877639055 -7.755936565939175 -9.0
    vertex -39.32068587763905 -7.817415208585338 -9.0
  endloop
endfacet
facet normal 2.6135063645865187e-16 1.1433503085123084e-16 -1.0
  outer loop
    vertex -39.62068587763905 -9.244063434060825 -9.0
    vertex -39.32068587763905 -7.817415208585338 -9.0
    vertex -39.32068587763905 -8.799999999999997 -9.0
  endloop
endfacet
facet normal 2.6135063645865187e-16 1.1433503085123084e-16 -1.0
  outer loop
    vertex -39.62068587763905 -9.244063434060825 -9.0
    vertex -39.32068587763905 -8.799999999999997 -9.0
    vertex -39.32068587763904 -9.18574950611257 -9.0
  endloop
endfacet
facet normal 2.6135063645865187e-16 1.1433503085123084e-16 -1.0
  outer loop
    vertex -39.32068587763905 -8.799999999999997 -9.0
    vertex -39.32068587763905 -7.817415208585338 -9.0
    vertex -39.32068587763905 -8.200000000000001 -9.0
  endloop
endfacet
facet normal 2.6135063645865187e-16 1.1433503085123084e-16 -1.0
  outer loop
    vertex -40.30327066905372 -8.2 -9.0
    vertex -40.30643538375162 -8.800000000000002 -9.000000000000002
    vertex -40.36474931169988 -8.500000000000004 -9.0
  endloop
endfacet
facet normal 2.6135063645865187e-16 1.1433503085123084e-16 -1.0
  outer loop
    vertex -40.30643538375162 -8.800000000000002 -9.000000000000002
    vertex -40.30327066905372 -8.2 -9.0
    vertex -39.92068587763905 -8.799999999999999 -9.0
  endloop
endfacet
facet normal 2.6135063645865187e-16 1.1433503085123084e-16 -1.0
  outer loop
    vertex -39.92068587763905 -8.799999999999999 -9.0
    vertex -40.30327066905372 -8.2 -9.0
    vertex -39.92068587763905 -8.199999999999998 -9.0
  endloop
endfacet
facet normal -0.0 -0.0 -1.0
  outer loop
    vertex -91.13453786483046 -8.5 0.0
    vertex -91.3659209647761 -7.5 0.0
    vertex -91.21972329910778 -7.8529523872437 0.0
  endloop
endfacet
facet normal -0.0 -0.0 -1.0
  outer loop
    vertex -91.13453786483046 -8.5 0.0
    vertex -91.21972329910778 -9.147047612756303 0.0
    vertex -91.3659209647761 -9.5 0.0
  endloop
endfacet
facet normal -0.0 -0.0 -1.0
  outer loop
    vertex -95.90315476488483 -7.5 0.0
    vertex -96.13453786483046 -8.5 0.0
    vertex -96.04935243055314 -7.852952387243697 0.0
  endloop
endfacet
facet normal -0.0 -0.0 -1.0
  outer loop
    vertex -95.90315476488483 -9.5 0.0
    vertex -96.04935243055314 -9.147047612756301 0.0
    vertex -96.13453786483046 -8.5 0.0
  endloop
endfacet
facet normal -0.0 -0.0 -1.0
  outer loop
    vertex -37.154326417961045 -8.500000000000002 0.0
    vertex -37.34870617778856 -7.5 0.0
    vertex -37.16924059443371 -8.08489836356101 0.0
  endloop
endfacet
facet normal -0.0 -0.0 -1.0
  outer loop
    vertex -41.92036955187236 -9.500000000000002 0.0
    vertex -42.09983513522721 -8.915101636438992 0.0
    vertex -42.114749311699875 -8.500000000000002 0.0
  endloop
endfacet
facet normal -0.0 -0.0 -1.0
  outer loop
    vertex -23.12089992000347 -0.3756346072784474 0.0
    vertex -23.32362750896887 -0.3005076858227579 0.0
    vertex -23.479082686899662 -0.15025384291137894 0.0
  endloop
endfacet
facet normal -0.0 -0.0 -1.0
  outer loop
    vertex -102.78999304276125 -24.84974615708862 0.0
    vertex -103.14817580965745 -24.62436539272155 0.0
    vertex -102.94544822069204 -24.699492314177242 0.0
  endloop
endfacet
facet normal -0.0 -0.0 -1.0
  outer loop
    vertex -114.39574935356633 -0.150253842911379 0.0
    vertex -114.49776850145945 -0.400676914430344 0.0
    vertex -114.67938381977395 -0.6010153716455159 0.0
  endloop
endfacet
facet normal -0.0 -0.0 -1.0
  outer loop
    vertex -11.589691909886971 -24.398984628354484 0.0
    vertex -11.873326376094585 -24.84974615708862 0.0
    vertex -11.771307228201467 -24.599323085569658 0.0
  endloop
endfacet
facet normal -0.0 -0.0 -1.0
  outer loop
    vertex -37.154326417961045 -8.500000000000002 0.0
    vertex -37.29197698256694 -9.37316007288972 0.0
    vertex -37.359255226781585 -9.500000000000002 0.0
  endloop
endfacet
facet normal -0.0 -0.0 -1.0
  outer loop
    vertex -37.29197698256694 -9.37316007288972 0.0
    vertex -37.154326417961045 -8.500000000000002 0.0
    vertex -37.14580735271066 -8.737108494246662 0.0
  endloop
endfacet
facet normal -0.0 -0.0 -1.0
  outer loop
    vertex -41.977098747093976 -7.626839927110285 0.0
    vertex -42.114749311699875 -8.500000000000002 0.0
    vertex -42.12326837695026 -8.262891505753341 0.0
  endloop
endfacet
facet normal -0.0 -0.0 -1.0
  outer loop
    vertex -42.114749311699875 -8.500000000000002 0.0
    vertex -41.977098747093976 -7.626839927110285 0.0
    vertex -41.90982050287934 -7.5 0.0
  endloop
endfacet
endsolid WagonTrim-driver
